<svg width="256" height="256" viewBox="0 0 256 256" fill="none" xmlns="http://www.w3.org/2000/svg">
<g clip-path="url(#clip0_4_216)">
<mask id="mask0_4_216" style="mask-type:luminance" maskUnits="userSpaceOnUse" x="0" y="0" width="256" height="223">
<path d="M256 0H0V223H256V0Z" fill="white"/>
</mask>
<g mask="url(#mask0_4_216)">
<path d="M183.259 155.441C183.715 156.114 184.053 156.699 184.453 157.405L185.027 157.453L185.256 157.005C185.455 157.777 188.995 160.476 190.261 161.746L190.945 161.461C192.415 158.509 194.065 158.035 197.005 156.238C199.145 156.215 201.686 155.974 203.861 155.845L203.542 157.605C199.764 154.925 191.149 160.814 190.247 164.252L189.308 163.822L189.329 163.635C189.774 162.663 189.802 162.98 189.61 162.103C189.076 161.812 186.926 160.65 186.54 160.43C186.199 160.235 186.186 158.983 184.844 158.256C183.966 158.857 184.023 159.408 183.603 160.599L182.381 159.718C183.403 158.406 182.842 157.299 182.431 155.8L183.259 155.441Z" fill="#A49EBC" fill-opacity="0.988235"/>
<path d="M225.471 132.947C227.244 133.975 226.639 134.619 226.036 136.518L225.219 136.818C225.11 136.193 223.942 135.182 223.419 134.672C223.857 134.008 224.794 133.436 225.471 132.947Z" fill="#BFB8D3" fill-opacity="0.976471"/>
<path d="M29.4165 134.19C30.515 132.858 30.7386 132.875 32.3727 132.302C32.1953 132.957 31.9923 133.387 32.1965 134.022C30.9483 134.235 30.6821 134.251 29.4165 134.19Z" fill="#EAE7CD" fill-opacity="0.952941"/>
<path d="M97.6255 103.898C122.676 97.3535 133.254 97.2429 158.458 102.853L160.015 103.182L160.032 104.719L159.44 106.602C159.988 114.943 159.253 124.553 159.61 133.211L159.707 134.286C159.287 136.616 159.445 138.465 159.532 140.815C158.655 150.48 159.832 162.688 159.132 172.423C158.057 172.913 157.019 173.487 155.849 173.576C150.367 176.907 148.673 175.613 152.583 181.843C154.52 184.93 155.399 182.589 157.083 184.14C157.178 187.021 156.935 186.861 159.095 188.647C159.139 190.288 159.486 194.567 158.693 195.825L160.137 196.359L160.226 196.687L159.962 198C159.945 199.507 159.774 206.089 160.195 207.014L159.848 208.214C159.892 210.285 159.864 214.672 160.416 216.48L160.062 217.859C158.419 217.829 158.238 217.553 157.067 218.276C156.938 221.893 156.868 249.454 157.661 251.422L158.563 251.388C163.361 253.643 171.082 247.324 175.08 248.88C169.248 251.917 164.864 253.045 158.777 254.798C137.789 260.845 114.397 260.17 93.6341 253.53C90.6077 252.562 85.7245 250.91 82.9166 249.28C81.7346 249.092 74.9713 245.85 73.4778 245.154C73.1482 244.647 70.8769 243.443 70.1186 242.985C64.9728 239.873 57.243 235.122 53.1335 230.771C53.3028 230.575 53.5256 230.168 53.6682 229.93C53.2763 229.054 53.0927 228.563 52.8147 227.646L54.9073 228.054C54.5079 225.376 54.3766 223.852 54.306 221.147C54.2133 219.913 53.8956 217.85 54.4472 216.848C55.7458 216.57 56.1621 216.72 56.9418 215.905L56.5461 215.258C56.282 214.225 56.4137 212.636 56.4505 211.52C55.9838 208.628 56.6807 203.346 56.0827 200.18L56.1488 199.977L57.6332 199.526L57.6942 196.52L57.7185 195.256C57.4203 192.907 57.62 188.508 57.7998 186.118L57.7303 185.072C56.442 185.029 55.1166 184.793 53.8367 184.6C52.0498 183.911 51.3095 183.713 50.0939 182.276L48.7968 181.652L47.7965 178.782C47.304 178.793 46.8536 178.597 46.3596 178.446C45.8381 178.114 45.7344 177.812 45.4328 177.279C43.9364 177.969 42.5025 177.771 40.8526 177.75L40.7074 177.748C39.1263 177.681 37.663 177.842 37.0326 176.186C37.7979 175.503 37.9064 175.675 39.0436 175.501C41.1619 174.922 41.1236 175.332 42.0369 173.863C40.7339 173.263 41.0645 173.609 40.3844 172.6C41.7385 170.541 46.143 172.92 48.5769 170.552C49.3345 171.24 49.5861 171.543 50.5966 171.862L52.4558 171.545L52.7636 171.487C55.321 172.161 58.0189 172.104 60.5445 171.321C62.9121 171.554 66.4358 171.521 68.7714 171.154C70.8813 171.894 74.8856 172.121 76.9396 171.462C77.1547 167.782 77.3379 164.099 77.4887 160.416L77.8358 156.336L79.3099 154.791C79.5754 153.553 79.9159 153.273 80.729 152.346L80.9078 150.067C80.5551 149.492 80.3632 148.794 80.1487 148.148C81.0891 146.985 82.8044 145.497 83.9464 144.441L86.189 143.162C87.952 143.077 88.5015 142.661 90.1124 141.841L92.1718 141.622C92.8184 140.882 92.6076 141.09 92.6054 139.81L93.3461 139.712C95.168 139.721 95.8135 139.664 97.6049 139.337C97.8907 137.183 97.3187 135.199 96.8256 133.114L96.8723 132.788C98.2861 127.133 96.2945 112.612 97.4317 107.048L96.8709 106.198L96.624 105.665L96.7601 104.545L97.6255 103.898Z" fill="#FEC320"/>
<path d="M103.141 187.418C107.29 189.499 110.447 190.811 114.896 192.185C113.654 197.764 112.758 204.055 111.672 209.754C110.543 215.672 108.787 222.729 108.064 228.597C109.183 229.93 110.398 231.323 111.45 232.698C111.561 232.679 111.68 232.683 111.784 232.64C112.842 232.206 115.784 209.501 116.469 206.737C116.889 204.346 118.05 195.61 118.71 193.979L119.509 193.675C120.69 193.877 120.706 193.672 121.366 194.431C120.392 202.277 119.489 210.132 118.659 217.994C118.078 223.367 117.31 233.594 115.762 238.245C118.284 240.695 125.639 250.537 127.922 253.634C131.553 248.437 135.9 243.807 139.456 238.674C138.834 234.802 134.092 194.907 134.556 193.878C135.82 193.532 135.318 193.498 136.466 193.934C138.002 195.696 138.076 201.241 138.564 203.864C140.42 213.83 141.979 223.818 143.221 233.877C144.716 232.092 146.4 230.26 147.959 228.51C145.513 216.35 143.438 204.666 141.114 192.577C145.486 190.989 148.936 189.722 153.153 187.772C153.681 188.259 155.636 191.115 156.169 191.866C156.215 192.127 156.358 192.362 156.572 192.523C157.295 193.742 157.861 194.678 158.693 195.825L160.137 196.359L160.226 196.687L159.962 198C159.945 199.507 159.774 206.089 160.195 207.014L159.848 208.214C159.892 210.285 159.864 214.672 160.416 216.48L160.062 217.859C158.419 217.829 158.238 217.553 157.067 218.276C156.938 221.893 156.868 249.454 157.661 251.422L158.563 251.388C163.361 253.643 171.082 247.323 175.08 248.88C169.248 251.917 164.864 253.045 158.777 254.798C137.789 260.845 114.397 260.17 93.6341 253.53C90.6078 252.562 85.7245 250.91 82.9166 249.279C81.7346 249.092 74.9713 245.85 73.4779 245.154C73.1484 244.647 70.8769 243.443 70.1186 242.985C64.9728 239.873 57.2431 235.122 53.1336 230.771C53.3028 230.575 53.5256 230.168 53.6684 229.93C53.2763 229.054 53.0928 228.563 52.8148 227.646L54.9073 228.054C54.508 225.376 54.3767 223.852 54.3061 221.147C54.2133 219.913 53.8957 217.85 54.4473 216.848C60.9211 216.934 67.396 216.937 73.8702 216.857C74.8897 216.103 92.9093 217.071 96.0213 216.349L96.1813 215.97L95.4679 215.233C95.5535 212.533 95.4944 209.515 95.5024 206.788L95.4403 205.692C95.4701 202.806 95.5076 200.086 95.6772 197.205C96.2295 196.702 96.5992 196.35 97.096 195.793C99.5254 193.347 101.252 190.322 103.141 187.418Z" fill="#00349B"/>
<path d="M73.8702 216.857C81.6986 216.899 91.8862 216.589 99.5225 216.999C99.528 221.812 100.358 249.214 98.769 251.455L97.5068 250.807C94.2395 252.968 86.4038 247.253 82.9166 249.279C81.7346 249.092 74.9713 245.85 73.4779 245.154C73.1484 244.647 70.8769 243.443 70.1186 242.985C64.9728 239.873 57.2431 235.122 53.1336 230.771C53.3028 230.575 53.5256 230.168 53.6684 229.93C53.2763 229.054 53.0928 228.563 52.8148 227.646L54.9073 228.054C54.508 225.376 54.3767 223.852 54.3061 221.147C54.2133 219.913 53.8957 217.85 54.4473 216.848C60.9211 216.934 67.396 216.937 73.8702 216.857Z" fill="#FEFEFE"/>
<path d="M116.468 206.737C117.23 211.321 115.193 220.874 114.281 225.696C113.733 228.592 115.413 232.055 112.198 233.629L111.539 233.391L111.45 232.698C111.561 232.679 111.68 232.683 111.784 232.64C112.842 232.206 115.784 209.501 116.468 206.737Z" fill="#1E3696"/>
<path d="M57.7998 186.118C66.2629 186.587 75.7429 186 84.3049 186.173C87.5766 186.24 92.4068 185.958 95.531 186.413C95.8418 187.844 95.744 190.184 95.7381 191.714L96.4185 190.004C96.5402 191.215 96.6712 195.149 97.0959 195.793C96.599 196.35 96.2295 196.702 95.677 197.205C95.5075 200.086 95.4701 202.806 95.4402 205.692L95.5023 206.788C95.4943 209.515 95.5535 212.533 95.4678 215.233L96.1813 215.97L96.0213 216.349C92.9093 217.071 74.8896 216.103 73.8702 216.857C67.396 216.937 60.921 216.934 54.4472 216.848C55.7458 216.57 56.1621 216.72 56.9418 215.904L56.5461 215.258C56.282 214.225 56.4137 212.636 56.4505 211.52C55.9838 208.628 56.6807 203.346 56.0827 200.18L56.1489 199.977L57.6332 199.526L57.6942 196.52L57.7185 195.256C57.4203 192.907 57.62 188.508 57.7998 186.118Z" fill="#FEFEFE"/>
<path d="M57.7998 186.118C66.263 186.587 75.7429 186 84.3049 186.173C87.5766 186.24 92.4068 185.958 95.531 186.413C95.8418 187.844 95.744 190.184 95.7381 191.714L96.4185 190.004C96.5402 191.215 96.6712 195.149 97.0959 195.793C96.5991 196.35 96.2295 196.702 95.6771 197.205C95.6249 197.128 95.5855 197.04 95.5197 196.974C94.3277 195.774 62.4157 196.471 57.6942 196.52L57.7185 195.256C57.4203 192.907 57.62 188.508 57.7998 186.118Z" fill="#FEFEFE"/>
<path d="M95.7381 191.714L96.4186 190.004C96.5403 191.215 96.6712 195.149 97.096 195.793C96.5992 196.35 96.2295 196.702 95.6772 197.205C95.6249 197.128 95.5855 197.04 95.5197 196.974C94.3277 195.774 62.4157 196.471 57.6943 196.52L57.7185 195.256C61.6147 195.594 67.509 195.437 71.5559 195.44L95.665 195.451C95.6014 194.071 95.6522 193.095 95.7381 191.714Z" fill="#24266C"/>
<path d="M57.521 206.798L95.5023 206.788C95.4943 209.515 95.5535 212.533 95.4678 215.232L96.1813 215.97L96.0213 216.349C92.9093 217.071 74.8897 216.103 73.8702 216.857C67.396 216.937 60.921 216.934 54.4472 216.848C55.7458 216.57 56.1621 216.719 56.9418 215.904L56.5461 215.258C56.282 214.225 56.4137 212.636 56.4505 211.52C57.3584 211.939 57.1904 211.695 57.5177 212.419C57.6505 210.853 57.5435 208.432 57.521 206.798Z" fill="#FEFEFE"/>
<path d="M56.4505 211.52C57.3584 211.939 57.1904 211.695 57.5177 212.419C57.584 213.616 57.3857 214.347 58.0363 215.087C68.6178 215.899 84.2972 214.963 95.4678 215.233L96.1813 215.97L96.0213 216.349C92.9093 217.071 74.8897 216.103 73.8702 216.857C67.396 216.937 60.921 216.934 54.4472 216.848C55.7458 216.571 56.1621 216.72 56.9418 215.904L56.5461 215.258C56.282 214.225 56.4137 212.636 56.4505 211.52Z" fill="#171765"/>
<path d="M57.6333 199.526L57.4983 205.643C70.1455 205.75 82.793 205.766 95.4403 205.692L95.5025 206.788L57.5211 206.798C57.5435 208.432 57.6505 210.853 57.5177 212.419C57.1904 211.695 57.3586 211.939 56.4505 211.52C55.9838 208.628 56.6807 203.346 56.0827 200.18L56.1489 199.977L57.6333 199.526Z" fill="#353572"/>
<path d="M42.0369 173.863C40.7339 173.263 41.0645 173.609 40.3844 172.6C41.7385 170.541 46.1429 172.92 48.5769 170.552C49.3345 171.24 49.5861 171.543 50.5966 171.862L52.4558 171.545L52.7636 171.487C55.321 172.161 58.0189 172.104 60.5445 171.321C62.9121 171.554 66.4358 171.521 68.7714 171.153C70.8813 171.894 74.8856 172.121 76.9396 171.462C81.0571 171.439 93.7996 171.152 97.25 171.663C97.9896 172.059 98.2753 172.259 99.0851 172.452C100.773 172.81 105.099 174.769 105.728 176.418C105.583 176.759 105.542 176.99 105.295 177.218C102.803 179.412 103.484 182.397 100.402 182.37C99.0366 182.357 98.7799 181.978 97.653 182.995L96.9955 184.747L95.9433 185.17L95.5075 185.555L95.531 186.413C92.4068 185.958 87.5766 186.24 84.3049 186.173C75.7429 186 66.2628 186.587 57.7998 186.118L57.7303 185.072C56.442 185.029 55.1166 184.793 53.8367 184.6C52.0498 183.911 51.3094 183.713 50.0939 182.276L48.7968 181.652L47.7965 178.782C47.304 178.793 46.8536 178.597 46.3596 178.446C45.8381 178.114 45.7344 177.812 45.4328 177.279C43.9364 177.969 42.5025 177.771 40.8526 177.75L40.7074 177.748C39.1263 177.681 37.663 177.842 37.0326 176.186C37.7979 175.503 37.9064 175.675 39.0436 175.501C41.1619 174.922 41.1236 175.332 42.0369 173.863Z" fill="#454E8D"/>
<path d="M78.1577 177.816C82.7577 177.68 101.823 178.121 104.649 177.198L105.295 177.218C102.803 179.412 103.484 182.397 100.402 182.37C99.0366 182.357 98.7799 181.978 97.6531 182.995L96.9956 184.747L95.9434 185.17L95.5075 185.555L95.5311 186.413C92.4069 185.958 87.5766 186.24 84.305 186.173C75.7429 186 66.2629 186.587 57.7998 186.118L57.7303 185.072C56.442 185.029 55.1166 184.793 53.8368 184.6C52.0498 183.911 51.3095 183.713 50.094 182.276L48.7969 181.652L47.7965 178.782C48.6229 178.591 48.5332 178.466 49.1377 178.741C49.813 178.454 71.5577 178.646 74.0122 178.633L74.7559 178.626C75.7316 178.291 76.7973 178.283 77.8395 178.207L78.1577 177.816Z" fill="#FEFEFE"/>
<path d="M78.1577 177.816C82.7577 177.68 101.823 178.121 104.649 177.198L105.295 177.218C102.803 179.412 103.484 182.397 100.402 182.37C99.0366 182.357 98.7799 181.978 97.6531 182.995L96.9955 184.747C96.9772 183.084 97.218 180.433 97.3284 178.692C90.6471 179.131 81.6011 178.786 74.7558 178.626C75.7315 178.291 76.7973 178.283 77.8395 178.207L78.1577 177.816Z" fill="#5E5E89"/>
<path d="M98.3324 178.79C99.4931 178.749 101.038 178.546 101.966 179.123C102.488 180.133 102.367 179.697 102.104 181.102C100.974 181.288 100.274 181.496 99.1668 181.144C98.2511 180.106 98.5211 180.369 98.3324 178.79Z" fill="#F4EFF4"/>
<path d="M57.7303 185.072C66.5873 185.258 75.4469 185.3 84.3053 185.202C87.1566 185.193 93.537 184.957 95.9433 185.17L95.5075 185.555L95.531 186.413C92.4068 185.958 87.5766 186.24 84.3049 186.173C75.7429 186 66.263 186.587 57.7998 186.118L57.7303 185.072Z" fill="#353572"/>
<path d="M47.7965 178.782C48.6229 178.591 48.5332 178.466 49.1377 178.741L50.094 182.276L48.7969 181.652L47.7965 178.782Z" fill="#24266C"/>
<path d="M99.0851 172.452C100.773 172.81 105.099 174.769 105.728 176.418C105.583 176.759 105.542 176.99 105.295 177.218L104.649 177.198C101.823 178.121 82.7577 177.68 78.1577 177.816L78.2666 175.608L77.4174 174.736C77.3081 173.796 77.407 174.135 76.6902 173.326C82.8945 172.44 92.433 173.885 99.0851 172.452Z" fill="#1E3696"/>
<path d="M78.2666 175.608C82.9196 176.091 101.405 174.773 103.956 176.248L104.649 177.198C101.823 178.121 82.7577 177.68 78.1577 177.816L78.2666 175.608Z" fill="#F4EFF4"/>
<path d="M42.0369 173.863C40.7339 173.263 41.0645 173.609 40.3846 172.6C41.7387 170.541 46.1431 172.92 48.577 170.552C49.3345 171.24 49.5861 171.543 50.5968 171.862L52.4558 171.545L52.7636 171.487C55.3211 172.161 58.0191 172.104 60.5445 171.321C62.9122 171.554 66.4358 171.521 68.7715 171.153C70.8814 171.894 74.8857 172.121 76.9397 171.462C81.0572 171.439 93.7996 171.152 97.25 171.663C97.9896 172.059 98.2754 172.259 99.0853 172.452C92.433 173.885 82.8946 172.44 76.6903 173.326L55.9856 173.358C52.1689 173.37 46.4791 173.271 42.7937 173.729L42.0369 173.863Z" fill="#050566"/>
<path d="M42.7937 173.729C46.4791 173.271 52.1689 173.37 55.9856 173.359L76.6903 173.326C77.407 174.135 77.3081 173.796 77.4174 174.736L76.7315 176.319C70.5206 175.387 45.8547 177.68 42.8007 174.928L42.7937 173.729Z" fill="#5E5E95"/>
<path d="M39.0436 175.501C41.4307 175.588 43.5094 175.631 45.4328 177.279C43.9364 177.969 42.5025 177.772 40.8526 177.75L40.7074 177.748C39.1263 177.681 37.663 177.842 37.0326 176.186C37.7979 175.503 37.9064 175.675 39.0436 175.501Z" fill="#F4EFF4"/>
<path d="M77.4174 174.736L78.2666 175.608L78.1577 177.816L77.8395 178.207C76.7973 178.283 75.7315 178.291 74.7558 178.626L74.0122 178.633L72.2962 178.264C74.1607 178.344 76.0702 178.301 76.7314 176.319L77.4174 174.736Z" fill="#24266C"/>
<path d="M93.3462 139.712C95.168 139.721 95.8135 139.664 97.6049 139.337L97.1824 141.242C97.677 144.404 97.7197 168.717 97.25 171.663C93.7996 171.153 81.0572 171.439 76.9396 171.462C77.1548 167.782 77.3379 164.099 77.4887 160.416L77.8358 156.336L79.3099 154.791C79.5754 153.553 79.9159 153.273 80.7291 152.346L80.9078 150.067C80.5551 149.492 80.3632 148.794 80.1487 148.148C81.0891 146.985 82.8044 145.497 83.9464 144.441L86.189 143.162C87.9521 143.077 88.5015 142.661 90.1124 141.841L92.1718 141.622C92.8184 140.882 92.6076 141.09 92.6054 139.81L93.3462 139.712Z" fill="#FEFEFE"/>
<path d="M93.3462 139.712C95.1681 139.721 95.8135 139.664 97.6049 139.337L97.1824 141.242C94.3134 142.817 93.462 142.351 90.1124 141.841L92.1718 141.622C92.8184 140.882 92.6077 141.09 92.6055 139.81L93.3462 139.712Z" fill="#5E5E95"/>
<path d="M97.6255 103.898C122.676 97.3535 133.254 97.2429 158.458 102.853L160.015 103.182L160.032 104.719L159.44 106.602L159.19 106.539C156.869 105.928 154.734 104.367 152.545 103.852C134.248 99.6277 115.105 100.738 97.4317 107.048L96.8709 106.198L96.6241 105.665L96.7601 104.545L97.6255 103.898Z" fill="#24266C"/>
<path d="M96.8709 106.198C98.6295 104.549 104.337 103.675 106.821 103.073C125.507 98.5469 141.594 100.391 160.032 104.719L159.44 106.602L159.19 106.539C156.869 105.928 154.734 104.367 152.545 103.852C134.248 99.6277 115.105 100.738 97.4317 107.048L96.8709 106.198Z" fill="#F4EFF4"/>
<path d="M96.9955 184.747L97.653 182.995C99.0223 184.532 99.3301 184.317 99.272 185.851C98.2059 187.678 97.5556 187.85 96.4184 190.004L95.7381 191.714C95.744 190.184 95.8418 187.844 95.531 186.413L95.5075 185.555L95.9433 185.17L96.9955 184.747Z" fill="#171765"/>
<path d="M156.168 191.866C156.081 191.369 156.364 190.88 156.841 190.704C157.318 190.527 157.856 190.71 158.121 191.142C158.386 191.573 158.304 192.129 157.925 192.467C157.547 192.804 156.978 192.828 156.572 192.523C156.358 192.362 156.215 192.127 156.168 191.866Z" fill="#F9CB29"/>
<path d="M197.786 188.816C198.681 188.534 198.571 188.407 199.285 188.641C199.039 190.97 198.656 193.33 200.307 195.227C199.619 196.448 199.172 198.754 199.535 200.014L203.794 203.092C204.845 208.227 205.438 211.172 205.698 216.45C204.351 217.291 204.756 216.809 204.158 218.255C203.924 219.817 203.64 220.957 204.093 222.486C203.587 223.078 202.996 223.814 202.437 224.336C202.139 225.952 202.125 226.171 202.439 227.782L204.286 226.843C202.728 230.381 191.587 239.241 188.461 240.857L188.393 241.215C189.051 241.045 189.446 240.851 190.072 240.951C188.056 242.626 177.046 248.681 175.08 248.88C171.082 247.323 163.361 253.643 158.563 251.388L157.661 251.422C156.868 249.454 156.938 221.893 157.067 218.276C158.238 217.553 158.419 217.829 160.062 217.859L160.416 216.48C159.864 214.672 159.892 210.285 159.848 208.214L160.195 207.014C159.774 206.089 159.945 199.507 159.962 198L160.226 196.687C163.749 197.132 170.616 196.925 174.386 196.908L197.857 196.753C197.911 194.138 197.831 191.437 197.786 188.816Z" fill="#FEFEFE"/>
<path d="M197.786 188.816C198.681 188.534 198.571 188.407 199.285 188.641C199.039 190.97 198.656 193.33 200.307 195.227C199.619 196.448 199.172 198.754 199.535 200.014L203.794 203.092C204.845 208.227 205.439 211.172 205.698 216.45C204.351 217.291 204.756 216.809 204.158 218.255C203.924 219.817 203.64 220.957 204.093 222.486C203.587 223.078 202.996 223.814 202.437 224.336L202.568 217.715C200.616 217.684 198.634 217.758 196.681 217.806L194.706 217.526C195.281 217.366 196.29 217.122 196.794 216.893L194.017 216.3C191.229 215.781 162.752 215.919 160.416 216.48C159.864 214.672 159.892 210.285 159.848 208.214L160.195 207.014C159.774 206.089 159.945 199.507 159.962 198L160.226 196.687C163.749 197.132 170.616 196.925 174.386 196.908L197.857 196.753C197.911 194.138 197.831 191.437 197.786 188.816Z" fill="#FEFEFE"/>
<path d="M160.226 196.687C163.749 197.132 170.616 196.925 174.386 196.908L197.857 196.753L197.867 197.85C197.956 200.912 197.999 203.974 197.995 207.037C186.039 207.049 171.971 207.43 160.195 207.014C159.774 206.089 159.945 199.507 159.962 198L160.226 196.687Z" fill="#FEFEFE"/>
<path d="M160.226 196.687C163.749 197.132 170.616 196.925 174.386 196.908L197.857 196.753L197.867 197.85C185.232 197.719 172.596 197.768 159.962 198L160.226 196.687Z" fill="#353572"/>
<path d="M197.786 188.816C198.681 188.534 198.571 188.407 199.285 188.641C199.039 190.97 198.656 193.33 200.307 195.227C199.619 196.448 199.172 198.754 199.535 200.014L203.794 203.092C204.845 208.227 205.439 211.172 205.698 216.45C204.351 217.291 204.756 216.809 204.158 218.255C203.924 219.817 203.64 220.957 204.093 222.486C203.587 223.078 202.996 223.814 202.437 224.336L202.568 217.715C200.616 217.684 198.634 217.758 196.681 217.806L194.706 217.526C195.281 217.366 196.29 217.122 196.794 216.893L194.017 216.3C195.853 216.348 196.304 216.556 197.485 215.532C198.338 213.721 198.009 210.476 198.035 208.212C186.328 207.65 171.708 208.076 159.848 208.214L160.195 207.014C171.971 207.43 186.039 207.049 197.995 207.037C197.999 203.974 197.956 200.912 197.867 197.85L197.857 196.753C197.911 194.138 197.831 191.437 197.786 188.816Z" fill="#171765"/>
<path d="M199.023 216.297C199.18 213.648 198.837 201.526 199.535 200.014L203.794 203.092C204.845 208.227 205.439 211.172 205.699 216.45C204.351 217.291 204.756 216.809 204.158 218.255C204.064 217.413 204.031 217.383 203.595 216.637C202.493 215.979 200.4 216.248 199.023 216.297Z" fill="#FEC320"/>
<path d="M160.416 216.48C162.752 215.919 191.229 215.781 194.017 216.3L196.794 216.893C196.29 217.122 195.281 217.366 194.706 217.526L196.681 217.806C193.22 218.239 184.382 218.145 180.632 218.108C174.405 218.045 166.121 218.35 160.062 217.859L160.416 216.48Z" fill="#5E5E95"/>
<path d="M159.532 140.815C162.582 142.737 163.453 141.646 166.833 142.107C167.658 142.22 169.285 142.763 170.575 142.975L172.995 144.424C174.303 145.68 176.077 147.241 177.036 148.719L177.92 148.63C178.459 147.782 178.544 147.308 179.332 146.965C180.55 147.771 181.661 149.024 182.597 149.25L182.771 150.317C182.589 150.603 181.626 152.07 181.541 152.272C182.122 152.874 182.146 152.893 182.345 153.684L183.259 155.441L182.431 155.8C182.841 157.299 183.403 158.406 182.381 159.718L183.603 160.599C184.023 159.408 183.966 158.857 184.844 158.256C186.186 158.983 186.199 160.235 186.54 160.43C186.926 160.65 189.076 161.812 189.61 162.103C189.802 162.98 189.774 162.663 189.329 163.635L189.308 163.822L190.247 164.252L192.603 164.704L194.046 164.264L194.213 163.105C194.466 162.831 194.835 162.612 195.152 162.392L195.982 162.701C197.442 163.099 199.398 163.539 200.677 164.253L202.703 164.814C203.476 165.406 203.942 165.878 204.889 166.096C205.399 166.897 206.198 168.069 206.632 168.865C206.742 169.811 206.985 170.794 206.617 171.618C206.872 171.61 207.118 171.711 207.294 171.895C207.47 172.078 207.557 172.328 207.533 172.579L208.84 172.954L209.037 172.961C210.917 173.95 212.482 173.454 214.165 173.922L214.115 174.592L215.483 176.173C212.813 176.366 212.05 176.387 210.222 178.267C209.508 179.151 209.145 179.155 208.061 179.39C207.391 180.589 207.346 181.113 207.098 182.451L205.8 182.777L203.293 185.304L198.539 186.047C198.29 186.526 197.917 187.326 197.579 187.697L197.786 188.816C197.831 191.437 197.911 194.138 197.857 196.753L174.386 196.908C170.616 196.925 163.749 197.132 160.226 196.687L160.137 196.359L158.693 195.825C159.486 194.567 159.139 190.288 159.095 188.647C156.935 186.861 157.178 187.021 157.083 184.14C155.399 182.589 154.52 184.93 152.583 181.843C148.673 175.613 150.367 176.907 155.849 173.576C157.019 173.487 158.057 172.913 159.132 172.423C159.832 162.688 158.655 150.48 159.532 140.815Z" fill="#FEFEFE"/>
<path d="M159.532 140.815C162.582 142.737 163.454 141.646 166.833 142.107C167.658 142.22 169.285 142.763 170.575 142.975L172.995 144.424C174.303 145.68 176.077 147.241 177.036 148.719L177.92 148.63C178.459 147.782 178.544 147.308 179.332 146.965C180.55 147.771 181.661 149.024 182.597 149.25L182.771 150.317C182.589 150.603 181.626 152.07 181.541 152.272C182.122 152.874 182.146 152.893 182.345 153.684L183.259 155.441L182.431 155.8C182.842 157.299 183.403 158.406 182.381 159.718L183.603 160.599C184.023 159.408 183.966 158.857 184.844 158.256C186.186 158.983 186.199 160.235 186.54 160.43C186.926 160.65 189.076 161.812 189.61 162.103C189.802 162.98 189.774 162.663 189.329 163.635L189.309 163.822C186.209 166.345 186.221 167.779 188.181 171.14L187.615 173.375C185.139 173.279 181.309 173.998 179.672 172.301L179.331 172.297C172.599 172.136 165.862 172.179 159.132 172.423C159.832 162.688 158.655 150.48 159.532 140.815Z" fill="#FEFEFE"/>
<path d="M183.603 160.599C184.023 159.408 183.966 158.857 184.844 158.256C186.186 158.983 186.199 160.235 186.54 160.43C186.926 160.65 189.076 161.812 189.61 162.103C189.802 162.98 189.774 162.663 189.329 163.635L189.309 163.822C186.209 166.345 186.221 167.779 188.181 171.14L187.615 173.375C185.139 173.279 181.309 173.998 179.672 172.301C180.068 169.293 179.484 162.422 179.243 159.207L182.381 159.718L183.603 160.599Z" fill="#00349B"/>
<path d="M183.603 160.599C184.023 159.408 183.966 158.857 184.844 158.256C186.186 158.983 186.199 160.235 186.54 160.43C186.926 160.65 189.076 161.812 189.61 162.103C189.802 162.98 189.774 162.663 189.329 163.635C187.953 163.256 183.997 161.931 183.603 160.599Z" fill="#171765"/>
<path d="M177.036 148.719L177.92 148.63C178.459 147.782 178.544 147.308 179.332 146.965C180.55 147.771 181.661 149.024 182.597 149.25L182.771 150.317C182.589 150.603 181.626 152.07 181.541 152.273C182.122 152.874 182.147 152.893 182.345 153.684L183.259 155.441L182.431 155.8C182.841 157.299 183.403 158.406 182.381 159.718L179.243 159.207C179.124 158.161 178.943 157.121 178.773 156.083L177.392 154.897C177.423 153.714 176.758 152.944 176.099 151.942C175.611 150.801 175.721 151.277 175.96 149.832L177.036 148.719Z" fill="#A49EBC"/>
<path d="M178.773 156.083C180.483 155.234 180.475 155.065 182.431 155.8C182.842 157.299 183.403 158.406 182.381 159.718L179.243 159.207C179.124 158.161 178.943 157.121 178.773 156.083Z" fill="#F9CB29"/>
<path d="M181.541 152.273C182.122 152.874 182.147 152.893 182.345 153.684L183.259 155.441L182.431 155.8C180.475 155.065 180.483 155.234 178.773 156.083L177.392 154.897C178.552 153.844 180.164 153.002 181.541 152.273Z" fill="#171765"/>
<path d="M175.96 149.832C177.896 150.116 179.231 149.16 180.459 149.619C180.346 150.699 180.002 151.006 179.339 151.837C177.814 152.496 177.891 151.604 176.099 151.942C175.611 150.801 175.721 151.277 175.96 149.832Z" fill="#24266C"/>
<path d="M194.213 163.105C194.466 162.831 194.835 162.612 195.152 162.392L195.982 162.701C197.442 163.099 199.398 163.539 200.677 164.253L202.703 164.814C203.476 165.406 203.942 165.878 204.889 166.096C205.399 166.897 206.198 168.069 206.632 168.865C206.742 169.811 206.985 170.794 206.617 171.618C206.872 171.61 207.118 171.711 207.294 171.895C207.47 172.078 207.557 172.328 207.533 172.579L208.84 172.954L209.037 172.961C210.917 173.95 212.482 173.454 214.165 173.922L214.115 174.591C211.758 175.281 209.386 177.394 207.25 177.53C198.252 178.107 188.328 178.185 179.331 177.89C177.706 177.836 178.521 175.119 177.051 174.87C172.285 174.058 159.176 176.246 155.849 173.576C157.019 173.487 158.057 172.913 159.132 172.423C165.862 172.179 172.599 172.136 179.331 172.297L179.672 172.301C181.309 173.998 185.139 173.279 187.615 173.375L188.181 171.14C186.221 167.779 186.209 166.345 189.309 163.822L190.247 164.252L192.603 164.704L194.046 164.264L194.213 163.105Z" fill="#5E5E95"/>
<path d="M194.213 163.105C194.466 162.831 194.835 162.612 195.152 162.392L195.982 162.701C197.442 163.099 199.399 163.539 200.677 164.253L202.703 164.814C203.476 165.406 203.942 165.878 204.889 166.096C205.399 166.897 206.198 168.069 206.632 168.865C206.742 169.811 206.985 170.794 206.617 171.618C206.371 171.627 206.14 171.735 205.976 171.917C205.814 172.1 205.735 172.341 205.758 172.583L203.704 172.267L203.611 171.851C200.756 172.891 198.338 173.1 195.646 171.595L193.891 172.356C192.547 172.197 191.708 172.303 190.368 172.413C189.497 172.082 188.948 171.655 188.181 171.14C186.221 167.779 186.209 166.345 189.308 163.822L190.247 164.252L192.603 164.704L194.046 164.264L194.213 163.105Z" fill="#00349B"/>
<path d="M189.308 163.822L190.247 164.252L192.603 164.704L194.046 164.264C195.815 164.788 195.445 164.435 196.65 165.641C196.836 166.344 197.077 167.152 197.178 167.863C196.691 169.359 196.455 170.247 195.646 171.595L193.891 172.356C192.547 172.197 191.708 172.303 190.368 172.413C189.497 172.082 188.948 171.655 188.181 171.14C186.221 167.779 186.209 166.345 189.308 163.822Z" fill="#FEFEFE"/>
<path d="M202.703 164.814C203.476 165.406 203.942 165.878 204.889 166.096C205.399 166.897 206.198 168.069 206.632 168.865C206.742 169.811 206.985 170.794 206.617 171.618C206.371 171.627 206.14 171.735 205.976 171.917C205.814 172.1 205.735 172.341 205.758 172.583L203.704 172.267L203.611 171.851L203.694 170.671C203.427 168.407 203.254 167.044 202.703 164.814Z" fill="#F4EFF4"/>
<path d="M206.632 168.865C206.742 169.811 206.985 170.794 206.617 171.618C206.371 171.627 206.14 171.735 205.977 171.917C205.814 172.1 205.735 172.341 205.758 172.583L203.704 172.267L203.611 171.851L203.694 170.671C204.634 170.203 205.728 169.449 206.632 168.865Z" fill="#EDEFF0"/>
<path d="M194.213 163.105C194.466 162.831 194.835 162.612 195.152 162.392L195.982 162.701C197.442 163.099 199.398 163.539 200.677 164.253C199.289 164.267 199.035 164.238 197.778 164.884C196.997 165.767 197.155 166.691 197.178 167.863C197.077 167.152 196.836 166.344 196.65 165.641C195.445 164.435 195.815 164.788 194.046 164.264L194.213 163.105Z" fill="#171765"/>
<path d="M188.181 171.14C188.948 171.655 189.497 172.082 190.368 172.413C191.708 172.303 192.547 172.197 193.891 172.356L194.599 173.393C193.017 173.867 180.53 173.955 179.248 173.219L179.331 172.297L179.672 172.301C181.309 173.998 185.139 173.279 187.615 173.375L188.181 171.14Z" fill="#454E8D"/>
<path d="M188.181 171.14C188.948 171.655 189.497 172.082 190.368 172.413L190.426 172.988C189.464 173.482 188.687 173.384 187.615 173.375L188.181 171.14Z" fill="#171765"/>
<path d="M193.891 172.356L195.646 171.595C198.338 173.1 200.756 172.891 203.611 171.851L203.704 172.267L203.329 173.103C201.047 173.686 197.099 173.175 194.599 173.393L193.891 172.356Z" fill="#171765"/>
<path d="M206.617 171.618C206.872 171.61 207.118 171.711 207.294 171.895C207.47 172.078 207.557 172.328 207.533 172.579C207.492 173.033 207.108 173.382 206.648 173.382C206.187 173.383 205.801 173.036 205.758 172.583C205.735 172.341 205.814 172.1 205.976 171.917C206.14 171.735 206.371 171.627 206.617 171.618Z" fill="#171765"/>
<path d="M159.904 187.673C170.492 188.402 186.109 187.365 197.579 187.697L197.786 188.816C197.831 191.437 197.911 194.138 197.857 196.753L174.386 196.908C170.616 196.925 163.749 197.132 160.226 196.687L160.137 196.359C160.292 193.894 160.113 190.134 159.904 187.673Z" fill="#FEFEFE"/>
<path d="M159.095 188.647C156.935 186.861 157.178 187.021 157.083 184.14C155.399 182.589 154.52 184.93 152.583 181.843C148.673 175.613 150.367 176.907 155.849 173.576C159.176 176.246 172.285 174.058 177.051 174.869C178.521 175.119 177.706 177.836 179.33 177.89C188.328 178.185 198.252 178.107 207.25 177.53C209.386 177.394 211.758 175.281 214.115 174.592L215.483 176.173C212.813 176.366 212.05 176.387 210.222 178.267C209.508 179.151 209.145 179.155 208.061 179.39C207.391 180.589 207.346 181.113 207.098 182.451L205.8 182.777C206.192 181.573 206.444 180.704 205.986 179.669C203.426 179.363 198.364 179.507 195.632 179.512L176.883 179.576C170.837 179.693 164.79 179.759 158.743 179.776C158.679 182.223 158.654 184.366 158.736 186.81C170.152 186.638 187.673 186.889 198.539 186.047C198.29 186.526 197.917 187.326 197.579 187.697C186.109 187.365 170.492 188.402 159.904 187.673C160.113 190.134 160.292 193.894 160.137 196.359L158.693 195.825C159.486 194.567 159.139 190.288 159.095 188.647Z" fill="#353572"/>
<path d="M158.268 178.511C156.831 178.554 156.835 178.772 155.744 178.18L155.908 177.62C158.191 175.92 175.366 175.642 177.179 176.948C177.622 178.305 177.46 177.958 176.883 179.576C170.837 179.693 164.79 179.759 158.743 179.776L158.268 178.511Z" fill="#BFB8D3"/>
<path d="M177.179 176.948C177.622 178.305 177.46 177.958 176.883 179.576C170.837 179.693 164.79 179.759 158.743 179.777L158.268 178.511C161.431 177.339 173.177 178.715 176.835 177.894L177.179 176.948Z" fill="#8884AF"/>
<path d="M155.292 179.471C156.615 179.583 156.893 179.819 157.224 180.948C156.799 182.181 156.536 182.293 155.474 182.973C155.162 182.817 154.856 182.65 154.555 182.474C153.56 181.88 153.241 181.449 152.992 180.451C153.856 179.475 153.708 179.763 155.292 179.471Z" fill="#EDEFF0"/>
<path d="M206.093 222.727C207.556 222.186 206.976 222.182 208.312 222.603C207.717 223.303 204.516 226.421 204.286 226.843L202.439 227.782C202.125 226.171 202.139 225.952 202.437 224.336C202.996 223.814 203.587 223.078 204.093 222.486L206.093 222.727Z" fill="#1E3696"/>
<path d="M79.614 125.34C85.3152 125.64 93.0082 127.207 96.2247 132.458L96.8724 132.788L96.8257 133.114C97.3188 135.199 97.8907 137.183 97.6049 139.337C95.8135 139.664 95.1681 139.721 93.3462 139.712L92.6054 139.81C92.6076 141.09 92.8184 140.882 92.1718 141.622L90.1124 141.841C88.5016 142.661 87.9521 143.077 86.189 143.162L83.9464 144.441C82.8044 145.497 81.0891 146.985 80.1488 148.148C80.3632 148.794 80.5551 149.492 80.9078 150.067L80.7291 152.346C79.916 153.273 79.5754 153.553 79.3099 154.791L77.8358 156.336L77.4887 160.416C77.3379 164.099 77.1548 167.782 76.9396 171.462C74.8857 172.121 70.8814 171.894 68.7715 171.154C66.4358 171.521 62.9121 171.554 60.5445 171.321C58.0191 172.104 55.3211 172.161 52.7636 171.487L52.4558 171.545L50.5967 171.862C49.5861 171.543 49.3345 171.24 48.5769 170.552C48.6159 168.718 48.7406 167.615 47.2603 166.317C41.0307 165.241 39.674 163.833 36.5884 158.479C35.4093 154.977 33.6168 151.03 33.2792 147.315C33.2119 146.574 34.0538 145.417 34.4561 144.702L34.0633 142.413C37.4273 136.14 31.8703 138.023 29.6729 137.163C30.7519 135.825 31.4717 136.299 32.4694 134.914L32.1965 134.022C31.9924 133.387 32.1954 132.957 32.3726 132.302C34.4061 132.566 34.7713 132.546 36.2078 134.062C36.6281 134.777 36.9242 135.425 37.5619 135.946L38.8785 136.087C40.6589 138.203 44.8731 143.61 46.9407 144.847C47.8679 145.289 49.3705 146.063 50.2775 146.407C53.4189 144.93 53.9684 142.646 56.217 139.966L56.3909 139.761L56.7976 140.259C57.0882 140.028 58.5545 138.02 58.8409 137.635C62.711 132.443 62.825 132.022 68.6148 129.383C70.6828 127.13 77.0845 127.262 79.4361 126.322L79.614 125.34Z" fill="#24266C"/>
<path d="M79.614 125.34C85.3152 125.64 93.0082 127.207 96.2246 132.458L96.8723 132.788L96.8256 133.114C97.3188 135.199 97.8907 137.183 97.6049 139.337C95.8135 139.664 95.1681 139.721 93.3462 139.712L92.6055 139.81C92.6077 141.09 92.8184 140.882 92.1719 141.622L90.1124 141.841C88.5015 142.661 87.9521 143.077 86.189 143.162L83.9464 144.441C82.8045 145.497 81.0892 146.985 80.1487 148.148C80.3632 148.794 80.5551 149.492 80.9079 150.067L80.7291 152.346C79.9159 153.273 79.5755 153.553 79.3099 154.791C77.8649 153.746 77.1014 153.409 75.445 152.87C74.4296 153.287 74.7764 153.001 74.182 154.033L73.2339 153.583C72.1038 154.037 70.9678 154.476 69.8259 154.9C69.372 154.571 68.9601 154.234 68.5258 153.883L68.738 153.45C69.5644 152.909 70.7722 151.941 71.5981 151.32C71.8489 150.213 71.9681 149.912 71.6702 148.772C70.91 147.934 69.1477 147.898 67.9528 147.751L66.1298 146.444L64.7029 147.2C63.9743 147.586 63.3421 147.86 62.743 148.422C62.6956 148.615 62.5477 148.772 62.4183 148.956C61.9659 148.297 61.6158 147.93 60.9832 147.437L59.1385 147.941C57.6501 147.457 57.4008 147.461 55.826 147.488L55.3795 147.87C54.3159 147.776 54.3255 147.496 53.3726 146.681C53.8401 144.496 55.5609 142.184 56.7976 140.259C57.0882 140.028 58.5545 138.02 58.841 137.635C62.711 132.443 62.825 132.022 68.6148 129.383C70.6828 127.13 77.0845 127.262 79.436 126.322L79.614 125.34Z" fill="#454E8D"/>
<path d="M69.2775 130.342C70.3731 130.082 72.0009 129.206 73.4619 128.898C77.5891 128.029 82.1516 128.474 86.3538 128.694C87.0996 128.733 87.1154 128.965 87.46 129.451L87.2364 129.999L86.3295 130.223C85.1015 129.801 84.6495 129.592 83.3407 129.882L84.4814 130.879C85.1471 131.347 85.7087 131.698 86.2765 132.284C84.6396 132.488 84.4752 132.243 83.38 133.115L83.2954 133.682L83.6467 134.653C78.9969 134.862 72.9074 145.534 69.2062 147.09L67.9528 147.751L66.1298 146.444L64.7029 147.2C63.9743 147.586 63.3421 147.86 62.743 148.422C62.6956 148.615 62.5477 148.772 62.4183 148.956C61.9659 148.297 61.6158 147.93 60.9832 147.437L59.1385 147.941C57.6501 147.457 57.4008 147.461 55.826 147.488L55.3795 147.87C54.3159 147.776 54.3255 147.496 53.3726 146.681C53.8401 144.496 55.5609 142.184 56.7976 140.259C57.0882 140.028 58.5545 138.02 58.841 137.635C62.711 132.443 62.825 132.022 68.6148 129.383L69.2775 130.342Z" fill="#171765"/>
<path d="M69.2775 130.342C70.3731 130.082 72.0009 129.206 73.4619 128.898C77.5891 128.029 82.1516 128.474 86.3538 128.694C87.0996 128.733 87.1154 128.965 87.46 129.451L87.2364 129.999L86.3295 130.223C85.1015 129.801 84.6495 129.592 83.3407 129.882C82.0115 130.138 75.3244 129.995 73.4866 130.001L74.028 130.809C70.1682 133.251 66.987 134.891 64.8595 139.262C63.9721 141.085 62.3138 146.008 60.9527 147.268L60.9832 147.437L59.1385 147.941C57.6501 147.457 57.4008 147.461 55.826 147.488L55.3795 147.87C54.3159 147.776 54.3255 147.496 53.3726 146.681C53.8401 144.496 55.5609 142.184 56.7976 140.259C57.0882 140.028 58.5545 138.02 58.841 137.635C62.711 132.443 62.825 132.022 68.6148 129.383L69.2775 130.342Z" fill="#353572"/>
<path d="M68.6148 129.383L69.2775 130.342C65.598 132.097 64.5675 133.313 61.9777 136.233C59.6747 138.83 56.9017 146.472 53.3726 146.681C53.8401 144.496 55.5609 142.184 56.7976 140.259C57.0882 140.028 58.5545 138.02 58.841 137.635C62.711 132.443 62.825 132.022 68.6148 129.383Z" fill="#F4EFF4"/>
<path d="M73.4866 130.001L74.028 130.809C70.1682 133.251 66.987 134.891 64.8594 139.262C63.9721 141.085 62.3138 146.008 60.9527 147.268L59.5871 146.875C61.7632 142.135 64.1129 135.906 68.4908 132.704C69.9255 131.654 71.9504 131.107 73.4866 130.001Z" fill="#BFB8D3"/>
<path d="M55.826 147.488C55.9117 146.635 58.8431 142.683 59.4688 142.388C60.6732 144.924 58.4541 145.022 58.8281 146.863L59.5871 146.875L60.9527 147.268L60.9833 147.437L59.1385 147.941C57.6501 147.457 57.4008 147.461 55.826 147.488Z" fill="#A49EBC"/>
<path d="M77.132 134.795C80.7759 135.314 79.7189 134.105 83.2954 133.682L83.6466 134.653C78.9969 134.862 72.9074 145.534 69.2062 147.09C69.147 145.889 70.9243 140.684 71.3816 139.026L72.7213 137.026C75.791 136.68 73.2538 136.419 74.9286 134.363L77.132 134.795Z" fill="#050566"/>
<path d="M64.7029 147.2C65.4531 143.343 69.9796 133.926 74.5323 133.907L74.9287 134.363C73.2538 136.419 75.7911 136.68 72.7213 137.026L71.3816 139.026C70.9245 140.684 69.147 145.889 69.2062 147.09L67.9529 147.751L66.1298 146.444L64.7029 147.2Z" fill="#171765"/>
<path d="M68.7947 139.848L69.4176 141.215C69.924 140.124 70.1668 139.958 71.1127 139.23L71.3815 139.026C70.9243 140.684 69.147 145.889 69.2061 147.09L67.9528 147.751L66.1298 146.444C66.4957 143.804 67.546 142.175 68.7947 139.848Z" fill="#5E5E95"/>
<path d="M68.7947 139.848C70.0918 138.038 70.4496 137.15 72.7213 137.026L71.3816 139.026L71.1127 139.23C70.1668 139.958 69.9241 140.124 69.4176 141.215L68.7947 139.848Z" fill="#5E5E89"/>
<path d="M62.743 148.422C61.8084 144.913 70.9634 130.336 75.8532 133.006C76.8991 133.577 76.8877 133.927 77.132 134.795L74.9286 134.363L74.5322 133.907C69.9795 133.926 65.4531 143.343 64.7028 147.2C63.9743 147.586 63.3421 147.86 62.743 148.422Z" fill="#8884AF"/>
<path d="M73.4866 130.001C75.3244 129.995 82.0115 130.138 83.3406 129.882L84.4815 130.879C80.3731 132.635 78.126 131.946 74.028 130.809L73.4866 130.001Z" fill="#8884AF"/>
<path d="M71.5981 151.32C72.594 151.7 73.1189 152.097 74.2211 151.911L74.5068 151.489L74.0993 149.503C75.004 148.159 76.2353 148.499 77.8793 146.695L77.7935 146.284C76.7193 146.412 74.9716 146.795 74.1372 146.292C74.4028 144.561 76.1188 143.479 77.8174 143.576C79.108 145.311 77.9326 146.884 78.3195 148.597C79.3757 148.85 78.9185 148.884 80.1487 148.148C80.3632 148.794 80.5551 149.492 80.9078 150.067L80.729 152.346C79.9159 153.273 79.5755 153.553 79.3099 154.791C77.8649 153.746 77.1014 153.409 75.445 152.87C74.4296 153.287 74.7764 153.001 74.182 154.033L73.2339 153.583C72.1038 154.037 70.9678 154.476 69.8258 154.9C69.372 154.571 68.9601 154.234 68.5258 153.883L68.738 153.45C69.5644 152.909 70.7721 151.941 71.5981 151.32Z" fill="#A49EBC"/>
<path d="M80.7292 152.346C78.8204 152.139 78.2463 152.105 76.4821 151.414L76.2998 150.585L75.5569 150.896C77.7293 149.551 78.4174 150.471 80.6048 150.117L80.9079 150.067L80.7292 152.346Z" fill="#171765"/>
<path d="M86.2766 132.284L87.705 132.527C88.9076 131.515 88.186 131.148 89.6836 130.047C89.6416 131.83 89.3919 131.251 88.4092 132.749C87.4666 134.187 89.6277 135.085 90.3893 135.861L90.2665 136.29C89.5192 137.177 88.97 138.08 87.9054 138.368C86.7958 138.118 84.9371 135.775 83.6466 134.653L83.2954 133.682L83.38 133.115C84.4752 132.243 84.6396 132.488 86.2766 132.284Z" fill="#24266C"/>
<path d="M80.0834 140.947L79.7072 140.509C80.272 139.137 82.4341 138.635 83.8441 139.042C84.726 140.724 82.4573 141.091 85.5829 142.03L86.189 143.162L83.9464 144.441C83.4433 143.854 83.4532 143.896 82.6905 143.665C81.3532 142.648 81.1024 142.299 80.0834 140.947Z" fill="#171765"/>
<path d="M93.3462 139.712C94.7717 137.818 95.2928 134.571 96.8257 133.114C97.3188 135.199 97.8907 137.183 97.6049 139.337C95.8135 139.664 95.1681 139.721 93.3462 139.712Z" fill="#5E5E89"/>
<path d="M96.2247 132.458L96.8723 132.788L96.8256 133.114C95.2927 134.571 94.7716 137.818 93.3462 139.711L92.6054 139.81C91.5206 137.839 94.4766 133.532 96.2247 132.458Z" fill="#E3DDE9"/>
<path d="M90.3893 135.861L90.5206 135.674C91.2624 134.594 92.4495 132.517 92.8706 131.31C94.9243 132.707 92.4009 136.462 91.0145 137.044L90.475 136.89L90.2665 136.29L90.3893 135.861Z" fill="#BFB8D3"/>
<path d="M82.6904 143.665C80.8155 144.532 78.496 143.52 78.1669 141.509L78.6998 140.957L80.0833 140.947C81.1024 142.299 81.3532 142.648 82.6904 143.665Z" fill="#A49EBC"/>
<path d="M32.3726 132.302C34.4061 132.566 34.7713 132.546 36.2078 134.061C36.6281 134.777 36.9242 135.426 37.5619 135.946L38.8785 136.087C40.6589 138.203 44.8731 143.61 46.9407 144.847L45.6297 145.327L48.7454 147.416C37.7557 151.016 46.9242 158.736 46.7608 161.858L46.2409 161.962C43.5006 161.117 41.3006 156.753 39.9612 154.3C41.2528 152.22 41.7978 151.363 42.6853 149.06C40.3407 146 37.5732 143.948 34.0633 142.414C37.4273 136.14 31.8703 138.023 29.6729 137.163C30.7519 135.825 31.4717 136.299 32.4694 134.914L32.1965 134.022C31.9924 133.387 32.1954 132.957 32.3726 132.302Z" fill="#FEFEFE"/>
<path d="M37.5619 135.946L38.8785 136.087C40.6589 138.203 44.8731 143.61 46.9407 144.847L45.6296 145.327C43.2068 142.623 39.5847 138.808 37.5619 135.946Z" fill="black"/>
<path d="M34.4561 144.702C36.0654 143.546 40.4713 147.998 41.8633 149.184L38.5975 154.289C40.7821 158.7 43.1917 162.011 47.9749 163.747C48.781 164.81 48.6744 164.352 48.5261 165.465C48.0977 165.807 47.7737 166.12 47.2603 166.317C41.0307 165.241 39.674 163.833 36.5884 158.479C35.4093 154.977 33.6168 151.03 33.2792 147.315C33.2119 146.574 34.0537 145.417 34.4561 144.702Z" fill="#FEFEFE"/>
<path d="M56.3909 139.761L56.7976 140.259C55.5609 142.184 53.8401 144.496 53.3726 146.681C54.3256 147.496 54.316 147.776 55.3796 147.87L55.826 147.488C57.4008 147.461 57.6502 147.457 59.1385 147.941L60.9833 147.437C61.6158 147.93 61.9659 148.297 62.4183 148.956C62.5478 148.772 62.6956 148.615 62.743 148.422C63.3422 147.86 63.9743 147.586 64.7028 147.2L66.1298 146.444L67.9528 147.751C69.1477 147.898 70.9101 147.934 71.6702 148.772C71.9682 149.912 71.849 150.213 71.5982 151.32C70.7721 151.941 69.5645 152.909 68.7381 153.45L68.0918 152.704C66.9018 151.515 66.84 151.454 65.327 151.823C64.1699 152.333 63.7316 152.128 62.2675 151.812C60.2378 151.373 60.4912 151.408 59.5732 149.97C57.2979 150.051 55.0074 149.956 52.7301 149.892C51.2308 149.94 50.9615 149.944 49.5537 150.428L48.4302 149.513C48.7406 148.703 48.7123 148.742 49.4074 148.216C50.6022 148.287 51.0965 148.293 52.2667 147.943L52.5007 147.514C51.4488 147.263 50.7493 147.161 49.8267 146.567L50.2775 146.407C53.419 144.93 53.9684 142.646 56.217 139.966L56.3909 139.761Z" fill="#050566"/>
<path d="M74.0739 160.725L77.4887 160.416C77.3379 164.099 77.1547 167.782 76.9396 171.462C74.8856 172.121 70.8813 171.894 68.7715 171.153C70.5361 168.034 70.3201 167.045 68.1007 164.414C69.2448 161.84 72.715 162.534 74.0739 160.725Z" fill="#00349B"/>
<path d="M53.8662 161.399C44.9316 162.962 42.6334 149.777 48.4301 149.513L49.5537 150.428C50.664 152.514 52.3697 154.008 52.3491 155.723L52.6349 156.028C52.8816 156.698 53.1722 157.341 53.2203 158.048L53.9864 159.423L53.8662 161.399Z" fill="#FEFEFE"/>
<path d="M60.2763 165C64.3391 165.436 66.6807 164.08 68.1007 164.414C70.3201 167.045 70.5361 168.034 68.7715 171.154C66.4358 171.521 62.9122 171.554 60.5445 171.321C59.4941 169.526 59.4702 166.889 60.2763 165Z" fill="#FEFEFE"/>
<path d="M53.3928 167.819C55.9547 164.901 56.3302 163.542 60.2763 165C59.4702 166.889 59.4941 169.526 60.5445 171.321C58.0189 172.104 55.3211 172.161 52.7636 171.487C52.9997 170.751 53.2619 168.689 53.3928 167.819Z" fill="#1E3696"/>
<path d="M52.6349 156.028C57.9447 155.834 60.5449 156.207 64.3487 159.702C64.8687 160.171 65.374 160.657 65.8639 161.158C67.6388 160.225 68.7306 158.588 70.1565 158.497C70.5974 159.62 68.9288 161.806 67.8403 162.161C65.3064 162.987 62.8056 160.312 61.1222 158.741C59.8299 159.278 60.0443 160.027 58.7722 160.61C58.1054 159.847 58.0202 159.988 56.9937 159.622L53.9864 159.423L53.2204 158.048C53.1722 157.341 52.8816 156.698 52.6349 156.028Z" fill="#8884AF"/>
<path d="M53.2204 158.048C54.5753 156.67 57.3166 157.331 58.9171 158.105L59.268 158.693C58.3431 159.604 58.4898 159.343 56.9937 159.622L53.9865 159.423L53.2204 158.048Z" fill="#171765"/>
<path d="M55.4979 163.741C54.3053 165.214 53.7742 165.925 53.3928 167.819C53.2619 168.689 52.9997 170.751 52.7636 171.487L52.4558 171.545L50.5967 171.862C49.586 171.543 49.3345 171.24 48.5768 170.552C48.6159 168.718 48.7405 167.615 47.2603 166.317C47.7737 166.12 48.0977 165.807 48.5261 165.465C48.6744 164.352 48.781 164.81 47.9749 163.747C49.8376 164.39 53.3755 163.91 55.4979 163.741Z" fill="#E3DDE9"/>
<path d="M50.5968 171.862C50.3951 170.845 50.066 169.968 50.4964 169.092C51.2767 169.996 51.3304 170.131 51.6132 171.289L52.4558 171.545L50.5968 171.862Z" fill="#454E8D"/>
<path d="M50.7313 164.765C51.3212 165.135 51.4595 165.475 51.8228 166.059C51.6198 167.279 51.5603 167.024 50.5948 168.082C49.7994 167.92 50.1127 168.114 49.6148 167.498C49.9454 166.484 50.297 165.727 50.7313 164.765Z" fill="#24266C"/>
<path d="M74.1821 154.033C74.7764 153.001 74.4296 153.287 75.445 152.87C77.1014 153.409 77.8649 153.746 79.3099 154.791L77.8358 156.336L77.4887 160.416L74.0739 160.725L73.1641 160.132L73.338 158.82L72.6047 157.836C72.5319 156.809 73.6186 155.252 74.1821 154.033Z" fill="#00349B"/>
<path d="M77.8358 156.336L77.4887 160.416L74.0739 160.725L73.1641 160.132L73.338 158.82C74.8025 156.604 75.2207 156.587 77.8358 156.336Z" fill="#FEC320"/>
<path d="M69.8259 154.9C70.9678 154.476 72.1038 154.037 73.234 153.583L74.1821 154.033C73.6187 155.252 72.532 156.808 72.6048 157.836L73.3381 158.82L73.1641 160.132C72.4859 158.52 70.8913 156.36 69.8259 154.9Z" fill="#F4EFF4"/>
<path d="M53.9864 159.423L56.9937 159.622C58.0201 159.988 58.1054 159.847 58.7722 160.61C57.3864 162.782 56.0952 160.964 53.8662 161.399L53.9864 159.423Z" fill="#B2B0B5"/>
<path d="M65.3269 151.823C66.8399 151.454 66.9017 151.515 68.0918 152.704C67.0992 152.891 66.8403 152.983 65.8642 152.763L65.3269 151.823Z" fill="#454E8D"/>
<path d="M60.6632 160.11C62.5216 160.753 63.3605 161.858 63.5613 163.707C61.7232 163.176 60.7515 161.924 60.6632 160.11Z" fill="#BFB8D3"/>
<path d="M159.871 77.2465L159.861 78.991L159.875 79.6023L159.106 80.5887L158.742 80.3728C156.675 79.8739 155.323 79.9662 153.228 79.9881C135.481 80.5453 115.985 80.003 98.1095 80.0784L96.6234 79.7982L97.029 78.9604C98.3747 78.6991 99.0296 78.7092 100.405 78.6998C101.368 77.5963 107.742 78.4232 110.3 78.0432L110.647 77.4053C112.481 77.5683 112.977 77.6261 114.769 77.311L117.461 77.3456L118.794 77.3834C121.056 77.664 134.087 77.7634 136.211 77.3467L140.256 77.2666C142.241 77.648 142.764 77.6411 144.761 77.2702L159.871 77.2465Z" fill="#171765"/>
<path d="M159.871 77.2465L159.861 78.991C146.963 78.5819 133.491 78.8286 120.568 78.7198C114.043 78.6648 106.846 79.0059 100.405 78.6998C101.368 77.5963 107.742 78.4232 110.3 78.0432L110.647 77.4053C112.481 77.5683 112.977 77.6261 114.769 77.311L117.461 77.3456L118.794 77.3834C121.056 77.664 134.087 77.7634 136.211 77.3467L140.256 77.2666C142.241 77.648 142.764 77.6411 144.761 77.2702L159.871 77.2465Z" fill="#F4EFF4"/>
<path d="M170.294 126.125C172.684 125.59 175.055 125.489 177.492 125.524C178.624 126.049 180.475 126.455 180.894 126.688C183.456 127.35 189.785 129.524 191.904 130.983L192.121 130.303C193.045 131.026 195.887 133.049 196.906 133.413C197.609 133.897 198.921 136.23 198.988 137.06C203.394 136.474 214.499 134.933 218.536 134.88C219.388 133.856 219.132 134.153 219.09 132.509C222.335 131.142 223.163 130.85 226.723 131.184L225.875 131.413L226.167 131.631C226.509 131.892 226.549 131.923 226.784 132.298C226.086 132.461 225.918 132.472 225.198 132.497L225.471 132.946C224.793 133.436 223.857 134.008 223.419 134.672L223.137 134.398L223.202 134.049L222.533 133.541C221.512 133.845 220.929 134.231 220.014 134.748C215.48 140.814 211.545 147.239 203.333 147.045L202.148 148.198C203.331 148.338 206.868 148.49 207.575 148.959L207.69 149.793C207.286 150.243 206.604 150.896 206.439 151.436C206.166 151.928 205.704 152.848 205.36 153.233L204.565 154.814L203.861 155.845C201.686 155.974 199.145 156.215 197.005 156.238C194.065 158.035 192.415 158.509 190.945 161.461L190.26 161.746C188.995 160.476 185.455 157.777 185.256 157.005L185.027 157.453L184.453 157.405C184.053 156.699 183.715 156.114 183.259 155.441L182.345 153.683C182.146 152.893 182.122 152.874 181.541 152.272C181.626 152.07 182.589 150.603 182.771 150.317L182.597 149.25C181.661 149.024 180.55 147.771 179.332 146.965C178.544 147.308 178.459 147.782 177.92 148.629L177.036 148.719C176.077 147.241 174.303 145.68 172.995 144.424L170.575 142.975C169.285 142.763 167.658 142.22 166.833 142.107C163.454 141.646 162.582 142.737 159.532 140.815C159.445 138.465 159.287 136.616 159.707 134.286L159.611 133.211C161.189 130.474 167.107 125.733 170.294 126.125ZM197.373 146.364L196.851 147.084C194.604 146.697 194.9 146.526 193.202 147.388C191.031 146.563 189.766 146.876 187.503 147.339L186.994 147.742C186.513 148.048 186.487 148.192 186.048 148.143L184.709 148.528L184.266 148.271L183.061 148.725L182.597 149.25L182.771 150.317C182.589 150.603 181.626 152.07 181.541 152.272C182.122 152.874 182.146 152.893 182.345 153.683L183.259 155.441C183.715 156.114 184.053 156.699 184.453 157.405L185.027 157.453L185.256 157.005C185.455 157.777 188.995 160.476 190.26 161.746L190.945 161.461C192.415 158.509 194.065 158.035 197.005 156.238C199.145 156.215 201.686 155.974 203.861 155.845L204.565 154.814L205.36 153.233C205.704 152.848 206.166 151.928 206.439 151.436C206.604 150.896 207.286 150.243 207.69 149.793L207.575 148.959C206.868 148.49 203.331 148.338 202.148 148.198L201.057 147.773C199.524 147.351 199.207 147.018 197.974 146.002L197.373 146.364Z" fill="#A49EBC"/>
<path d="M197.974 146.002C199.207 147.018 199.524 147.351 201.057 147.773L202.148 148.198C203.331 148.338 206.868 148.49 207.575 148.959L207.69 149.793C207.286 150.243 206.604 150.896 206.439 151.436C206.166 151.928 205.704 152.848 205.36 153.233L204.565 154.814L203.861 155.845C201.686 155.974 199.145 156.215 197.005 156.238C194.065 158.035 192.415 158.509 190.945 161.461L190.26 161.746C188.995 160.476 185.455 157.777 185.256 157.005L185.027 157.453L184.453 157.405C184.053 156.699 183.715 156.114 183.259 155.441L182.345 153.684C182.147 152.893 182.122 152.874 181.541 152.272C181.626 152.07 182.589 150.603 182.771 150.317L182.597 149.25L183.061 148.725L184.266 148.271L184.709 148.528L186.048 148.143C186.487 148.192 186.513 148.048 186.994 147.742L187.503 147.339C189.766 146.876 191.031 146.563 193.202 147.388C194.9 146.526 194.604 146.698 196.851 147.084L197.373 146.364L197.974 146.002ZM194.097 154.41C192.592 154.519 191.932 154.326 191.227 155.923C192.326 155.753 193.118 155.768 193.884 155.023L194.097 154.41ZM189.369 158.305L189.796 157.543C189.258 157.548 189.113 157.506 188.614 157.714L188.531 158.34C188.881 158.356 189.089 158.418 189.369 158.305Z" fill="#050566"/>
<path d="M191.227 155.923C191.932 154.326 192.592 154.519 194.097 154.41L193.884 155.023C193.118 155.768 192.326 155.753 191.227 155.923Z" fill="#5E5E95" fill-opacity="0.956863"/>
<path d="M182.771 150.317C184.153 150.37 186.366 151.552 186.829 152.835C185.962 153.322 185.97 153.469 185.548 154.428C186.007 154.789 185.981 154.67 186.24 155.138L185.256 157.005L185.027 157.453L184.453 157.405C184.053 156.699 183.715 156.114 183.259 155.441L182.345 153.684C182.147 152.893 182.122 152.874 181.541 152.273C181.626 152.07 182.589 150.603 182.771 150.317Z" fill="#454E8D"/>
<path d="M182.345 153.684L182.921 152.72L183.623 152.679C184.265 153.28 184.88 153.852 185.548 154.427C186.007 154.789 185.981 154.67 186.24 155.138L185.256 157.005L185.027 157.453L184.453 157.405C184.053 156.699 183.715 156.114 183.259 155.441L182.345 153.684Z" fill="#F4EFF4"/>
<path d="M194.097 154.41L194.468 153.256C195.49 152.594 203.731 152.998 205.36 153.233L204.565 154.814C202.539 153.738 196.585 154.306 194.097 154.41Z" fill="#8884AF"/>
<path d="M197.028 149.171C199.052 151.36 204.922 150.283 207.69 149.793C207.286 150.243 206.604 150.896 206.439 151.436C204.287 151.603 199.135 151.26 196.917 150.825C196.38 150.402 195.935 150.051 195.582 149.773C196.179 149.846 196.367 149.561 197.028 149.171Z" fill="#454E8D"/>
<path d="M189.083 152.221C191.903 149.544 192.985 147.435 197.028 149.171C196.367 149.561 196.179 149.846 195.582 149.773C192.63 150.368 191.612 151.65 189.083 152.221Z" fill="#A49EBC"/>
<path d="M186.829 152.835L188.087 152.983C187.744 153.885 187.194 154.71 186.24 155.138C185.981 154.67 186.007 154.789 185.548 154.428C185.97 153.469 185.962 153.322 186.829 152.835Z" fill="#A49EBC"/>
<path d="M188.614 157.714C189.113 157.506 189.258 157.548 189.796 157.543L189.369 158.305C189.089 158.418 188.881 158.356 188.531 158.34L188.614 157.714Z" fill="#8884AF" fill-opacity="0.929412"/>
<path d="M163.974 137.336L164.451 137.205C165.413 137.547 165.494 137.631 166.436 137.387C166.739 135.734 165.097 135.731 165.371 133.935C166.713 133.343 165.577 134.515 167.299 134.974C171.147 130.375 169.977 130.99 175.045 131.869C177.663 132.323 182.862 130.275 185.772 132.31C189.27 134.755 194.476 141.723 194.305 145.851C191.238 144.343 189.326 132.426 182.6 133.187C180.916 133.378 176.301 133.883 175.242 134.907L175.049 135.234C172.403 134.204 172.648 134.403 170.421 136.469C170.982 137.11 171.25 137.301 172.057 137.59C171.992 138.351 171.924 138.638 171.74 139.382L170.418 140.624L170.575 142.975C169.285 142.763 167.658 142.22 166.833 142.107C163.454 141.646 162.582 142.737 159.532 140.815C159.445 138.465 159.287 136.616 159.707 134.286L160.172 134.574L161.228 133.873C162.849 134.63 162.098 136.41 163.974 137.336Z" fill="#171765"/>
<path d="M160.172 134.574L161.228 133.873C162.85 134.63 162.098 136.41 163.974 137.336C164.149 138.186 164.134 138.352 164.056 139.218C162.925 139.725 163.404 139.665 162.232 139.514C160.986 138.478 160.672 136.286 160.172 134.574Z" fill="#E3DDE9"/>
<path d="M170.421 136.469C170.982 137.11 171.25 137.301 172.057 137.59C171.992 138.351 171.924 138.638 171.74 139.382L170.418 140.624C169.835 140.283 169.699 139.992 169.319 139.445C169.342 137.951 169.876 137.82 170.421 136.469Z" fill="#454E8D"/>
<path d="M170.421 136.469C172.648 134.403 172.403 134.204 175.049 135.234L175.38 135.927L176.839 136.802C178.833 138.072 179.197 138.78 180.369 140.829C182.774 141.914 183.465 141.95 184.38 144.324L185.079 144.657C185.624 145.613 186.312 146.923 186.994 147.742C186.513 148.048 186.487 148.192 186.048 148.143L184.709 148.528L184.266 148.271L183.061 148.725L182.597 149.25C181.661 149.024 180.55 147.771 179.332 146.965C178.544 147.308 178.459 147.782 177.92 148.63L177.036 148.719C176.077 147.241 174.303 145.68 172.995 144.424L170.575 142.975L170.418 140.624L171.74 139.382C171.924 138.638 171.992 138.351 172.057 137.59C171.25 137.301 170.982 137.11 170.421 136.469Z" fill="#353572"/>
<path d="M171.74 139.382C173.958 142.292 174.487 139.612 176.457 140.445L176.14 141.294C175.352 142.255 174.641 143.093 173.803 144.011L172.995 144.424L170.575 142.975L170.418 140.624L171.74 139.382Z" fill="#171765"/>
<path d="M181.966 146.467C178.574 145.285 179.884 146.735 177.834 145.805L177.706 145.116C179.076 143.622 180.448 143.464 182.125 144.728C182.566 145.495 182.652 145.565 182.734 146.421L181.966 146.467Z" fill="#B2B0B5"/>
<path d="M176.14 141.294C177.44 140.93 177.101 140.806 178.034 141.259C177.805 143.444 175.89 144.387 173.803 144.011C174.641 143.093 175.352 142.255 176.14 141.294Z" fill="#B2B0B5"/>
<path d="M184.38 144.324L185.079 144.657C185.624 145.613 186.312 146.923 186.994 147.742C186.513 148.048 186.487 148.192 186.048 148.143C184.422 146.616 184.544 146.577 184.38 144.324Z" fill="#5E5E89"/>
<path d="M181.966 146.466L182.734 146.421L184.266 148.271L183.061 148.725L181.966 146.466Z" fill="#5E5E95"/>
<path d="M198.988 137.06C203.394 136.474 214.499 134.933 218.536 134.88C217.454 136.662 216.381 137.518 215.204 139.048C212.329 142.789 206.853 149.106 202.654 142.951C201.419 141.039 200.073 139.049 198.988 137.06Z" fill="#FEC320"/>
<path d="M219.09 132.509C222.335 131.142 223.163 130.85 226.723 131.184L225.875 131.413L226.167 131.631C226.509 131.892 226.549 131.923 226.784 132.298C226.086 132.461 225.918 132.472 225.198 132.498L225.471 132.946C224.794 133.436 223.857 134.008 223.419 134.672L223.137 134.398L223.202 134.049L222.533 133.541C221.512 133.845 220.929 134.231 220.014 134.748C215.48 140.814 211.545 147.239 203.333 147.045L202.148 148.198L201.057 147.773C199.524 147.351 199.207 147.018 197.974 146.002L197.373 146.364C195.286 143.992 194.595 140.016 192.356 136.878C193.265 134.748 193.278 135.42 192.309 133.46C197.718 138.292 197.311 144.31 202.507 145.914L203.057 145.641C202.882 144.376 202.906 144.722 201.974 143.621L202.654 142.951C206.853 149.106 212.329 142.789 215.204 139.048C216.381 137.518 217.454 136.662 218.536 134.88C219.388 133.856 219.132 134.153 219.09 132.509Z" fill="#353572"/>
<path d="M197.974 146.002L197.331 144.657L197.568 144.179C199.068 144.826 200.233 146.305 201.553 147.289L201.057 147.773C199.524 147.351 199.207 147.018 197.974 146.002Z" fill="#BFB8D3"/>
<path d="M220.014 134.748C221.613 132.279 222.318 132.397 225.198 132.498L225.471 132.946C224.794 133.436 223.857 134.008 223.419 134.672L223.137 134.398L223.202 134.049L222.533 133.541C221.512 133.845 220.929 134.231 220.014 134.748Z" fill="#F4EFF4"/>
<path d="M201.553 147.289C202.144 147.126 202.776 146.863 203.333 147.045L202.148 148.198L201.057 147.773L201.553 147.289Z" fill="#E3DDE9"/>
<path d="M175.242 134.907C177.044 135.012 180.177 134.611 182.119 134.424C182.552 135.417 182.709 135.807 182.987 136.885L184.062 137.736C184.575 138.452 185.283 139.511 185.831 140.144C185.037 141.949 185.735 143.024 185.079 144.657L184.38 144.324C183.465 141.95 182.774 141.914 180.369 140.829C179.197 138.78 178.833 138.072 176.839 136.802L175.38 135.927L175.049 135.234L175.242 134.907Z" fill="#050566"/>
<path d="M175.38 135.927C176.689 135.488 176.264 135.446 177.388 135.69C177.328 136.445 177.419 136.161 176.839 136.802L175.38 135.927Z" fill="#050566"/>
<path d="M184.062 137.736C188.781 136.204 189.179 145.777 190.971 145.954C191.19 145.567 191.327 145.399 191.442 144.971C191.669 146.636 191.504 146.579 193.202 147.388C191.031 146.563 189.766 146.876 187.503 147.339L186.994 147.742C186.312 146.923 185.624 145.613 185.079 144.657C185.735 143.024 185.037 141.949 185.831 140.144C185.283 139.511 184.575 138.452 184.062 137.736Z" fill="#5E5E89"/>
<path d="M185.831 140.144C186.564 140.856 187.471 146.06 187.503 147.339L186.994 147.742C186.312 146.923 185.624 145.613 185.079 144.657C185.735 143.024 185.037 141.949 185.831 140.144Z" fill="#171765"/>
<path d="M183.108 129.727C179.264 130.133 176.66 130.141 172.795 129.926C171.549 129.857 170.824 130.385 169.147 130.123L169.01 129.6C169.569 129.005 170.538 128.471 171.361 128.44C179.231 128.151 183.989 127.633 190.64 132.138L189.43 133.545C187.613 131.963 185.259 130.863 183.108 129.727Z" fill="#171765"/>
<path d="M182.119 134.424C185.921 132.436 190.373 142.208 191.442 144.971C191.327 145.399 191.19 145.567 190.971 145.954C189.179 145.777 188.781 136.204 184.062 137.736L182.987 136.885C182.709 135.807 182.552 135.417 182.119 134.424Z" fill="#171765"/>
<path d="M192.121 130.303C193.045 131.026 195.887 133.049 196.906 133.413C197.609 133.897 198.921 136.23 198.988 137.06C200.073 139.049 201.419 141.039 202.654 142.951L201.974 143.621C200.473 140.417 194.921 132.934 191.904 130.983L192.121 130.303Z" fill="#1E3696"/>
<path d="M170.294 126.125C172.684 125.59 175.055 125.489 177.492 125.524C178.624 126.049 180.475 126.455 180.894 126.688C178.836 127.022 171.849 127.455 170.294 126.125Z" fill="#353572"/>
<path d="M190.64 132.138L192.309 133.46C193.278 135.42 193.265 134.748 192.356 136.878C191.863 136.157 190.093 134.284 189.43 133.545L190.64 132.138Z" fill="#1E3696"/>
<path d="M166.833 130.638C167.079 130.568 167.444 130.572 167.705 130.56L167.233 131.533L166.565 131.258L166.833 130.638Z" fill="#24266C"/>
<path d="M159.753 71.1772C164.488 71.0552 169.227 71.1087 173.957 71.3384L174.585 72.3134C174.431 74.1021 174.385 78.6797 174.898 80.3222C174.887 83.0165 174.958 83.7789 175.526 86.4193C175.352 88.4083 176.471 106.993 176.807 108.636C176.812 110.045 176.777 111.661 176.842 113.05C176.824 114.668 176.727 116.159 177.134 117.733C177.279 120.137 177.537 123.174 177.492 125.524C175.055 125.489 172.684 125.59 170.294 126.125C167.107 125.734 161.189 130.474 159.611 133.211C159.253 124.553 159.988 114.943 159.44 106.602L160.032 104.719L160.015 103.182L158.458 102.853L158.266 98.9716C157.228 97.5519 158.7 95.0479 156.66 93.249C157.091 89.2446 157.28 83.8077 153.213 81.6295C153.419 81.0432 153.29 80.6527 153.228 79.9881C155.323 79.9663 156.675 79.8739 158.742 80.3729L159.106 80.5887L159.875 79.6023L159.861 78.9909L159.872 77.2466L159.753 71.1772Z" fill="#FEFEFE"/>
<path d="M168.331 87.1912C166.842 86.6344 166.997 86.9569 166.333 85.841C167.061 84.3277 170.017 84.2222 171.431 84.7638L171.627 85.2784C170.949 86.2141 169.921 86.5583 168.855 87.0537L168.331 87.1912Z" fill="#FEFEFE"/>
<path d="M166.707 79.6595C168.042 80.0412 168.948 80.2156 170.082 81.0192L170.177 81.3263L169.667 83.0467C168.166 83.1293 167.495 83.2491 166.335 82.5063C165.946 81.4403 166.329 80.7215 166.707 79.6595Z" fill="#FEFEFE"/>
<path d="M82.1152 70.042L83.6466 70.3171C88.3702 71.6739 91.0803 71.4981 95.5712 72.2427L97.0257 72.3377C97.0191 73.9616 96.9844 75.5852 96.9209 77.2076C101.218 77.2273 105.871 77.3368 110.139 77.1687L110.647 77.4053L110.3 78.0432C107.742 78.4232 101.368 77.5963 100.405 78.6998C99.0297 78.7092 98.3746 78.6991 97.029 78.9603L96.6234 79.7982L98.1094 80.0784C98.0642 88.0509 97.6373 96.0332 97.6255 103.898L96.7601 104.545L96.6241 105.664L96.8709 106.198L97.4317 107.048C96.2945 112.612 98.2861 127.133 96.8723 132.788L96.2247 132.458C93.0082 127.207 85.3152 125.64 79.614 125.34C79.2684 124.507 79.5868 120.335 79.6457 119.131C79.8031 117.955 79.8005 115.551 79.8369 114.279C80.0591 112.436 80.1208 111.95 79.8726 110.13C80.629 107.921 81.2704 91.7397 81.5688 88.283L81.8997 85.3781L82.9339 84.9941C82.3098 83.6355 82.6518 83.3763 83.3109 82.2489L83.2748 81.766L82.138 80.1205C82.2329 77.7728 82.3009 76.0783 82.1391 73.7247L82.4716 72.6675L82.1152 70.042Z" fill="#FEFEFE"/>
<path d="M87.3901 80.8248C89.1467 80.2186 88.7457 80.0751 90.3283 80.4475C91.1822 81.8086 91.2896 81.4901 91.1105 82.7708C89.5195 83.8659 88.0819 83.5249 87.0345 81.9629L87.3901 80.8248Z" fill="#FEFEFE"/>
<path d="M82.1152 70.0421L83.6467 70.3172C88.3703 71.6739 91.0803 71.4982 95.5712 72.2427C91.2642 72.5798 86.7998 72.5044 82.4716 72.6675L82.1152 70.0421Z" fill="#BFB8D3"/>
<path d="M50.4175 70.3583C54.2976 70.9282 69.1779 71.8508 70.462 73.8965C71.8243 76.0667 79.0363 85.5317 81.5688 88.283C81.2704 91.7397 80.629 107.921 79.8726 110.13L52.565 88.9211C52.5532 85.0021 50.8659 75.3599 50.4175 70.3583Z" fill="#FEC320"/>
<path d="M187.379 71.6437C190.983 70.6825 202.274 69.3221 206.349 68.8828C205.804 72.8855 203.977 84.406 203.858 87.9257C197.999 92.3646 192.168 96.8418 186.369 101.357C185.156 102.298 179.375 106.717 178.613 107.59L176.807 108.636C176.471 106.993 175.352 88.4083 175.526 86.4193C178.24 83.117 184.852 74.0909 187.379 71.6437Z" fill="#FEC320"/>
<path d="M127.705 37.7133C131.416 43.0417 135.721 47.6462 139.292 52.6457C137.867 59.7826 137.167 69.8433 136.211 77.3467C134.087 77.7634 121.056 77.664 118.794 77.3834C118.637 74.2295 118.14 70.3201 117.58 67.2171C117.266 62.1584 116.743 57.9443 115.426 53.0216C119.448 48.8465 124.153 42.3797 127.705 37.7133Z" fill="#FEC320"/>
<path d="M220.014 134.748C220.929 134.231 221.512 133.845 222.533 133.542L223.202 134.049L223.137 134.398L223.419 134.672C223.942 135.182 225.11 136.193 225.219 136.818C221.204 137.431 220.682 139.347 222.917 142.547C219.309 143.019 216.168 146.174 213.935 148.916C214.751 150.635 215.633 152.625 216.599 154.241C213.758 159.746 212.565 161.561 206.193 162.682L204.889 166.096C203.942 165.878 203.476 165.406 202.703 164.814L200.677 164.253C199.399 163.539 197.442 163.099 195.982 162.701L195.152 162.392C194.835 162.612 194.466 162.831 194.213 163.105L194.046 164.264L192.603 164.704L190.247 164.252C191.148 160.814 199.764 154.925 203.542 157.605L203.861 155.845L204.565 154.814L205.36 153.233C205.705 152.848 206.166 151.928 206.439 151.436C206.604 150.896 207.286 150.243 207.69 149.793L207.575 148.959C206.868 148.49 203.331 148.338 202.148 148.198L203.333 147.045C211.545 147.239 215.481 140.814 220.014 134.748Z" fill="#FEFEFE"/>
<path d="M190.247 164.252C191.148 160.814 199.764 154.925 203.542 157.605L202.94 159.14C202.844 160.39 203.07 160.448 202.315 161.122C200.288 160.577 199.546 160.07 197.651 161.264C197.544 161.52 197.318 161.709 197.045 161.769L195.982 162.701L195.152 162.392C194.835 162.612 194.466 162.831 194.213 163.105L194.046 164.264L192.603 164.704L190.247 164.252Z" fill="#171765"/>
<path d="M192.972 163.121C194.365 157.294 199.677 160.274 202.94 159.14C202.844 160.39 203.07 160.448 202.315 161.122C200.288 160.577 199.546 160.07 197.651 161.264C197.544 161.52 197.318 161.709 197.045 161.769L195.982 162.701L195.152 162.392C194.835 162.612 194.466 162.831 194.213 163.105L192.972 163.121Z" fill="#BFB8D3"/>
<path d="M197.045 161.769C196.66 161.854 196.265 161.667 196.09 161.317C195.915 160.967 196.004 160.543 196.307 160.292C196.609 160.04 197.045 160.025 197.364 160.255C197.683 160.486 197.801 160.902 197.651 161.264C197.544 161.52 197.318 161.709 197.045 161.769Z" fill="#171765"/>
<path d="M192.972 163.121L194.213 163.105L194.046 164.264L192.603 164.704L192.972 163.121Z" fill="#454E8D"/>
<path d="M27.2003 138.173C28.108 138.271 28.4695 138.373 29.3456 138.121L29.6729 137.163C31.8703 138.023 37.4273 136.14 34.0633 142.413L34.4561 144.702C34.0538 145.417 33.212 146.574 33.2792 147.315C33.6168 151.03 35.4094 154.977 36.5884 158.479L35.3549 159.128C33.5389 158.42 21.2988 148.49 19.055 146.667C20.4614 145.576 25.0283 141.75 26.3342 141.688C26.9838 141.299 27.299 141.082 27.8892 140.61C26.9878 139.214 27.1275 139.827 27.2003 138.173Z" fill="#FEC320"/>
<path d="M27.2003 138.173C28.108 138.271 28.4695 138.373 29.3456 138.121L29.6729 137.163C31.8703 138.023 37.4273 136.14 34.0633 142.413L34.4561 144.702C34.0538 145.417 33.212 146.574 33.2792 147.315C33.6168 151.03 35.4094 154.977 36.5884 158.479L35.3549 159.128C35.0784 156.948 31.811 146.965 30.9825 143.053C29.123 142.706 28.0271 142.588 26.3342 141.688C26.9838 141.299 27.299 141.082 27.8892 140.61C26.9878 139.214 27.1275 139.827 27.2003 138.173Z" fill="#171765"/>
<path d="M160.768 58.2722C163.179 61.0604 166.867 60.1861 170.321 59.9755C171.545 62.0412 171.394 61.8209 173.892 62.0218C174.489 62.8422 174.883 63.2058 174.967 64.2052L174.727 65.2209L175.812 66.026C175.847 66.6628 175.898 66.7957 175.588 67.37C175.41 67.8384 175.357 68.163 174.94 68.4276L174.54 70.3456L173.957 71.3384C169.227 71.1087 164.488 71.0552 159.753 71.1772L159.48 69.9907L158.742 68.4698C158.606 67.8857 158.384 67.5909 158.093 67.0562L158.357 65.7003C158.447 62.2311 158.815 61.1121 160.768 58.2722Z" fill="#FEFEFE"/>
<path d="M160.768 58.2722C163.179 61.0604 166.867 60.1861 170.321 59.9755C171.545 62.0412 171.394 61.8209 173.892 62.0218C174.489 62.8422 174.883 63.2058 174.967 64.2052L174.727 65.2209C170.843 65.2256 162.28 65.0299 158.767 65.4979L158.357 65.7003C158.447 62.2311 158.815 61.1121 160.768 58.2722Z" fill="#F4EFF4"/>
<path d="M160.768 58.2722C163.179 61.0604 166.867 60.1861 170.321 59.9755C171.545 62.0412 171.394 61.8209 173.892 62.0218C170.769 62.3214 160.898 61.8057 159.184 62.7709C159.075 63.0471 158.856 63.5388 158.807 63.8066L158.767 65.4979L158.357 65.7003C158.447 62.2311 158.815 61.1121 160.768 58.2722Z" fill="#1E3696"/>
<path d="M158.807 63.8066C160.59 64.7052 171.998 64.1636 174.967 64.2051L174.727 65.2209C170.843 65.2256 162.28 65.0299 158.767 65.4979L158.807 63.8066Z" fill="#353572"/>
<path d="M158.742 68.4698C164.104 68.4603 169.59 68.512 174.94 68.4276L174.54 70.3456L173.957 71.3384C169.227 71.1087 164.488 71.0552 159.753 71.1772L159.48 69.9907L158.742 68.4698Z" fill="#BFB8D3"/>
<path d="M159.48 69.9907C164.543 70.3678 169.957 69.9871 174.54 70.3456L173.957 71.3384C169.227 71.1087 164.488 71.0552 159.753 71.1772L159.48 69.9907Z" fill="#353572"/>
<path d="M158.093 67.0562C164.245 67.5778 169.914 67.0079 175.588 67.37C175.41 67.8384 175.357 68.163 174.94 68.4276C169.59 68.512 164.104 68.4603 158.742 68.4698C158.606 67.8857 158.384 67.5909 158.093 67.0562Z" fill="#24266C"/>
<path d="M222.917 142.547C222.827 143.433 222.857 143.514 222.342 144.205C223 146.331 223.529 146.432 223.126 148.775C222.605 151.799 221.377 154.4 220.483 157.301C218.079 162.483 216.214 164.236 210.796 165.954C208.584 166.655 208.618 166.749 208.183 168.983C208.286 170.503 208.876 172.02 208.84 172.954L207.533 172.579C207.557 172.328 207.47 172.078 207.294 171.895C207.119 171.711 206.872 171.61 206.617 171.618C206.985 170.794 206.742 169.811 206.632 168.865C206.198 168.069 205.399 166.897 204.889 166.096L206.193 162.682C212.565 161.561 213.758 159.746 216.599 154.241C215.633 152.625 214.751 150.635 213.935 148.916C216.168 146.174 219.309 143.019 222.917 142.547Z" fill="#FEFEFE"/>
<path d="M222.917 142.547C222.827 143.433 222.857 143.514 222.342 144.205C219.789 143.98 216.484 147.52 214.799 149.38C223.436 159.778 207.324 161.742 206.552 166.024C206.811 166.866 207.422 168.502 208.183 168.983C208.286 170.503 208.876 172.02 208.84 172.954L207.533 172.579C207.557 172.328 207.47 172.078 207.294 171.895C207.119 171.711 206.872 171.61 206.617 171.618C206.985 170.794 206.742 169.811 206.632 168.865C206.198 168.069 205.399 166.897 204.889 166.096L206.193 162.682C212.565 161.561 213.758 159.746 216.599 154.241C215.633 152.625 214.751 150.635 213.935 148.916C216.168 146.174 219.309 143.019 222.917 142.547Z" fill="#24266C"/>
<path d="M226.036 136.518C226.777 137.6 226.572 137.229 226.456 138.763C227.313 138.817 228.707 138.764 229.367 139.117L229.625 139.808L230.656 140.635C232.746 142.038 235.85 143.986 237.773 145.468C235.251 147.382 223.635 156.684 221.598 157.32L220.483 157.301C221.377 154.4 222.605 151.799 223.126 148.775C223.529 146.432 223 146.331 222.341 144.205C222.857 143.514 222.827 143.433 222.917 142.547C220.682 139.347 221.204 137.431 225.219 136.818L226.036 136.518Z" fill="#FEC320"/>
<path d="M226.036 136.518C226.777 137.6 226.572 137.229 226.456 138.763C227.313 138.817 228.707 138.764 229.367 139.117L229.625 139.808L230.656 140.635C228.798 142.482 228.275 142.565 225.654 142.934C224.531 147.483 223.269 153.001 221.598 157.32L220.483 157.301C221.377 154.4 222.605 151.799 223.126 148.775C223.529 146.432 223 146.331 222.341 144.205C222.857 143.514 222.827 143.433 222.917 142.547C220.682 139.347 221.204 137.431 225.219 136.818L226.036 136.518Z" fill="#171765"/>
<path d="M226.456 138.763C227.313 138.817 228.706 138.764 229.367 139.117L229.625 139.808C228.175 141.086 227.749 141.624 225.868 140.826C225.326 139.778 225.41 140.247 225.585 139.045L226.456 138.763Z" fill="#EAE7CD"/>
<path d="M84.9438 59.3473L86.5615 60.8296C88.005 61.8057 91.9203 61.5528 93.6452 61.3887L94.5068 60.8467C96.3325 61.4236 96.5307 61.0982 97.7455 62.2501C98.5545 63.2699 98.3607 62.7799 98.4372 64.1189L98.2434 65.6565L98.8833 66.8087C98.8645 68.207 99.0653 67.6953 98.1422 68.7304C97.8109 69.4495 97.8399 69.4914 97.965 70.2994C97.755 70.7463 97.1559 71.9392 97.0257 72.3378L95.5712 72.2427C91.0804 71.4982 88.3703 71.6739 83.6466 70.3171L82.1152 70.042L81.5948 68.4974C81.4544 68.0232 81.5092 67.2771 81.518 66.7651L81.8383 65.6264L82.1869 63.882L82.0241 62.8997L82.697 62.2897C82.7842 61.7696 82.864 61.8265 83.2565 61.3624C83.8088 60.6295 84.3402 60.0311 84.9438 59.3473Z" fill="#FEFEFE"/>
<path d="M81.5948 68.4974C86.9815 68.7707 92.7188 68.7086 98.1422 68.7304C97.8109 69.4495 97.8399 69.4913 97.965 70.2994C97.755 70.7463 97.1559 71.9392 97.0257 72.3377L95.5712 72.2427C91.0803 71.4981 88.3703 71.6739 83.6466 70.3171L82.1152 70.042L81.5948 68.4974Z" fill="#454E8D"/>
<path d="M83.6466 70.3171C85.6852 70.2047 96.4924 69.5853 97.9649 70.2993C97.7549 70.7463 97.1559 71.9392 97.0257 72.3378L95.5712 72.2427C91.0803 71.4982 88.3702 71.6739 83.6466 70.3171Z" fill="#A49EBC"/>
<path d="M84.9438 59.3473L86.5616 60.8296C88.005 61.8057 91.9203 61.5528 93.6452 61.3887L94.5068 60.8467C96.3325 61.4236 96.5307 61.0982 97.7454 62.2501C98.5545 63.2699 98.3607 62.7799 98.4372 64.1189C94.0956 63.6716 86.7113 63.8711 82.187 63.882L82.024 62.8997L82.6971 62.2897C82.7842 61.7696 82.864 61.8265 83.2564 61.3624C83.8088 60.6295 84.3402 60.0311 84.9438 59.3473Z" fill="#171765"/>
<path d="M84.9438 59.3473L86.5615 60.8296C88.005 61.8057 91.9203 61.5528 93.6452 61.3887L94.5068 60.8467C96.3324 61.4236 96.5306 61.0982 97.7454 62.2501C97.4968 62.3265 83.7154 62.408 82.6971 62.2897C82.7842 61.7696 82.864 61.8265 83.2564 61.3624C83.8088 60.6295 84.3402 60.0311 84.9438 59.3473Z" fill="#A49EBC"/>
<path d="M84.9438 59.3473L86.5616 60.8296C85.3435 61.4105 84.6058 61.3366 83.2564 61.3624C83.8088 60.6295 84.3402 60.0311 84.9438 59.3473Z" fill="#1E3696"/>
<path d="M82.187 63.882C86.7113 63.8711 94.0957 63.6716 98.4372 64.1189L98.2433 65.6565C95.1909 66.0066 84.7467 66.0715 81.8383 65.6264L82.187 63.882Z" fill="#F4EFF4"/>
<path d="M98.2434 65.6565L98.8833 66.8087C93.0953 66.6552 87.264 66.9867 81.518 66.7651L81.8383 65.6263C84.7467 66.0715 95.1909 66.0066 98.2434 65.6565Z" fill="#24266C"/>
<path d="M53.3057 95.398C61.4452 100.584 71.6827 108.556 79.8369 114.279C79.8005 115.551 79.8031 117.955 79.6457 119.131C71.3701 113.238 62.4168 107.358 53.9879 101.588C53.9618 99.1768 53.7029 97.7662 53.3057 95.398Z" fill="#FEC320"/>
<path d="M194.343 100.291C197.407 98.4286 200.387 96.08 203.438 94.1028C202.816 96.7868 202.648 97.6868 202.567 100.431L186.305 111.391C183.655 113.179 179.512 115.81 177.134 117.733C176.727 116.159 176.824 114.668 176.842 113.05C182.325 109.082 189.233 104.42 194.343 100.291Z" fill="#FEC320"/>
<path d="M84.9438 59.3473C83.5811 55.765 83.5359 51.6489 87.8433 50.2695C89.8509 49.625 92.0365 49.8121 93.9026 50.7886C98.264 53.0992 98.2346 58.0262 94.5068 60.8467L93.6452 61.3887C91.9203 61.5527 88.005 61.8057 86.5616 60.8296L84.9438 59.3473Z" fill="#FEFEFE"/>
<path d="M160.768 58.2722C160.294 57.33 159.868 56.4354 159.79 55.3832C158.904 43.5122 179.856 49.0533 170.321 59.9755C166.867 60.1861 163.179 61.0604 160.768 58.2722Z" fill="#FEFEFE"/>
<path d="M192.121 130.303C193.609 129.113 209.092 126.368 212.187 125.773C214.345 127.267 215.695 128.711 217.401 130.692C214.191 130.67 200.218 132.626 196.906 133.413C195.887 133.049 193.045 131.026 192.121 130.303Z" fill="#FEC320"/>
<path d="M38.8785 136.087C41.187 136.092 54.5146 137.507 56.306 138.373C56.637 139.27 56.6068 138.823 56.3909 139.761L56.217 139.966C53.9684 142.646 53.4189 144.93 50.2775 146.407C49.3706 146.063 47.8678 145.289 46.9407 144.847C44.8731 143.61 40.6589 138.203 38.8785 136.087Z" fill="#FEC320"/>
<path d="M44.1736 126.911C49.3397 128.098 58.2639 130.289 63.472 130.481C62.2432 131.775 60.4713 133.749 59.2165 134.918C54.8886 133.86 44.0637 131.853 39.6335 131.708L39.7262 131.184C40.6133 129.841 42.872 128.214 44.1736 126.911Z" fill="#FEC320"/>
<path d="M143.239 57.6328C144.729 59.57 145.904 60.8551 147.58 62.6383C146.875 67.6502 145.295 72.9051 144.761 77.2702C142.764 77.6411 142.241 77.648 140.256 77.2666C141.156 71.1968 142.066 63.5341 143.239 57.6328Z" fill="#FEC320"/>
<path d="M107.77 62.8819C109.127 61.096 110.212 59.6799 111.724 58.0083C112.922 62.2479 114.226 72.6212 114.769 77.311C112.977 77.6261 112.481 77.5683 110.647 77.4053L110.139 77.1687C109.917 74.358 108.405 65.8195 107.77 62.8819Z" fill="#FEC320"/>
<path d="M51.7169 212.518C52.1652 208.943 52.0016 201.268 56.0827 200.18C56.6807 203.346 55.9838 208.628 56.4505 211.52C56.4137 212.636 56.282 214.225 56.5461 215.258C55.1254 215.197 53.9386 215.007 52.6897 215.657L52.1818 215.645C51.5364 214.59 51.7592 213.941 51.7169 212.518Z" fill="#FEC320"/>
<path d="M53.8367 184.6C55.1166 184.793 56.442 185.029 57.7303 185.072L57.7998 186.118C57.62 188.508 57.4203 192.907 57.7185 195.256L57.6942 196.52L57.6333 199.526L56.1489 199.977C55.9378 197.513 56.1456 197.001 54.1185 195.591C53.3215 193.452 54.1188 189.808 55.9147 188.2C56.5387 186.347 55.139 185.423 53.8367 184.6Z" fill="#1E3696"/>
<path d="M55.9147 188.2C57.1025 190.535 56.74 194.272 54.1185 195.591C53.3215 193.452 54.1188 189.808 55.9147 188.2Z" fill="#FEC320"/>
<path d="M27.4071 132.29L26.9392 131.722C27.5423 128.722 31.3307 128.2 33.8978 128.477L34.1615 128.506C35.5822 128.66 36.7049 129.885 37.798 130.859C37.6663 131.616 37.7001 131.804 37.2018 132.347L36.5873 132.324L36.2078 134.062C34.7713 132.546 34.406 132.566 32.3727 132.302C30.7386 132.875 30.515 132.858 29.4165 134.19C29.3599 133.094 29.5291 133.447 28.9138 132.652L27.3846 132.567L27.4071 132.29Z" fill="#F4EFF4"/>
<path d="M27.407 132.29C31.0156 130.757 32.9769 130.792 36.5873 132.324L36.2077 134.061C34.7713 132.546 34.4061 132.566 32.3726 132.302C30.7387 132.875 30.5151 132.858 29.4166 134.19C29.3599 133.093 29.529 133.448 28.9138 132.652L27.3846 132.567L27.407 132.29Z" fill="#171765"/>
<path d="M225.198 132.498C225.917 132.472 226.086 132.461 226.784 132.298C226.549 131.923 226.509 131.892 226.168 131.631L225.875 131.413L226.724 131.184L230.078 132.376C230.415 132.949 231.224 134.212 231.353 134.788C231.224 136.531 231.123 137.045 232.52 138.299C230.728 138.617 231.311 138.442 229.85 139.697L229.367 139.117C228.707 138.764 227.313 138.817 226.456 138.763C226.572 137.229 226.777 137.6 226.036 136.518C226.639 134.62 227.244 133.975 225.471 132.946L225.198 132.498Z" fill="#050566"/>
<path d="M27.3846 132.567L28.9138 132.652C29.5291 133.448 29.3599 133.094 29.4165 134.19C30.6821 134.251 30.9483 134.235 32.1965 134.022L32.4694 134.914C31.4717 136.299 30.7519 135.825 29.6729 137.163L29.3456 138.121C28.4695 138.373 28.108 138.271 27.2004 138.173C26.4861 136.847 25.1501 138.589 23.2325 137.904L23.3928 136.93C24.5771 135.56 25.9797 133.144 27.3846 132.567Z" fill="#050566"/>
<path d="M208.061 179.39C209.145 179.155 209.508 179.151 210.222 178.267C211.752 178.443 214.119 178.288 215.155 178.692L215.222 179.593C215.026 181.259 215.315 181.047 214.352 182.078C212.54 182.777 208.668 183.01 207.098 182.451C207.346 181.113 207.391 180.589 208.061 179.39Z" fill="#F4EFF4"/>
<path d="M208.061 179.39C209.145 179.155 209.508 179.151 210.222 178.267C211.752 178.443 214.119 178.288 215.155 178.692L215.222 179.593C212.834 179.573 210.447 179.505 208.061 179.39Z" fill="#5E5E95"/>
<path d="M75.4089 73.149C77.7641 73.4813 79.77 73.5904 82.1391 73.7247C82.3009 76.0783 82.2329 77.7729 82.1381 80.1206L81.5342 81.3806C80.0617 80.1082 76.6826 74.9952 75.4089 73.149Z" fill="#FEC320"/>
<path d="M219.09 132.509C218.696 126.154 229.595 127.337 230.078 132.376L226.724 131.184C223.163 130.85 222.334 131.142 219.09 132.509Z" fill="#F4EFF4"/>
<path d="M174.585 72.3134C176.821 72.4986 178.767 72.1784 180.986 71.9116C179.453 74.2244 176.794 78.551 174.898 80.3222C174.385 78.6797 174.431 74.1021 174.585 72.3134Z" fill="#FEC320"/>
<path d="M45.4328 177.279C45.7344 177.812 45.8381 178.114 46.3597 178.446C46.8536 178.597 47.3041 178.793 47.7965 178.782L48.7969 181.652C46.3449 181.379 43.2979 181.624 41.3293 181.06C40.4628 180.207 40.7008 180.659 40.636 179.127C40.9262 178.298 40.8758 178.637 40.7074 177.748L40.8527 177.75C42.5025 177.771 43.9365 177.969 45.4328 177.279Z" fill="#F4EFF4"/>
<path d="M45.4328 177.279C45.7344 177.812 45.8381 178.114 46.3597 178.446C45.1905 178.643 41.2053 178.903 40.636 179.127C40.9262 178.298 40.8758 178.637 40.7074 177.748L40.8527 177.75C42.5025 177.771 43.9365 177.969 45.4328 177.279Z" fill="#454E8D"/>
<path d="M51.717 212.517C51.7592 213.941 51.5364 214.59 52.1818 215.645L52.6897 215.657C53.9386 215.007 55.1255 215.197 56.5461 215.258L56.9419 215.904C56.1621 216.72 55.7458 216.57 54.4472 216.848C53.8956 217.85 54.2133 219.913 54.3061 221.147L52.4506 221.342C49.3942 220.719 51.1837 214.924 51.717 212.517Z" fill="#F9CB29"/>
<path d="M56.5461 215.258L56.9419 215.904C56.1622 216.719 55.7459 216.569 54.4473 216.848C53.8956 217.85 54.2133 219.913 54.3061 221.147L52.4506 221.342C53.0644 219.156 53.3389 217.835 52.6897 215.657C53.9386 215.007 55.1255 215.197 56.5461 215.258Z" fill="#050620"/>
<path d="M199.285 188.641C201.887 189.94 204.23 193.014 203.03 195.892L202.354 196.295C201.405 195.956 201.153 195.779 200.307 195.227C198.656 193.33 199.038 190.97 199.285 188.641Z" fill="#FEC320"/>
<path d="M215.483 176.173C217.291 176.654 217.541 176.441 218.465 177.78C217.807 178.933 216.363 178.751 215.155 178.692C214.119 178.289 211.752 178.443 210.222 178.267C212.05 176.387 212.813 176.366 215.483 176.173Z" fill="#A49EBC"/>
<path d="M117.58 67.2171C118.141 70.3201 118.637 74.2295 118.794 77.3834L117.461 77.3456C116.294 74.738 117.347 70.5428 117.58 67.2171Z" fill="#1E3696"/>
<path d="M204.158 218.255C204.756 216.809 204.351 217.291 205.698 216.45C205.971 218.592 206.325 220.576 206.093 222.727L204.093 222.486C203.64 220.958 203.924 219.817 204.158 218.255Z" fill="#F9CB29"/>
<path d="M209.037 172.961L209.625 172.344C211.649 172.385 212.686 172.329 214.648 172.955L214.988 173.483L214.685 173.884L214.165 173.922C212.482 173.454 210.917 173.95 209.037 172.961Z" fill="#050566"/>
<path d="M82.1381 80.1207L83.2748 81.766L83.3109 82.2489C82.6519 83.3765 82.3098 83.6356 82.9338 84.9941L81.8997 85.3781C81.9233 83.7455 82.0086 82.9346 81.5341 81.3806L82.1381 80.1207Z" fill="#EAE7CD"/>
<path d="M231.353 134.788C232.442 136.013 232.883 136.105 233.149 137.483L232.52 138.299C231.123 137.045 231.224 136.531 231.353 134.788Z" fill="#050566"/>
<path d="M37.798 130.859L39.7262 131.184L39.6336 131.708C38.2467 132.391 38.5269 132.511 37.2019 132.347C37.7002 131.804 37.6664 131.616 37.798 130.859Z" fill="#1E3696"/>
<path fill-rule="evenodd" clip-rule="evenodd" d="M96.5588 78.0506H161.547V105.283C136.417 99.1531 121.524 100.025 96.5588 106.084V78.0506Z" fill="#FEFEFE"/>
</g>
</g>
<defs>
<clipPath id="clip0_4_216">
<rect width="256" height="223" fill="white"/>
</clipPath>
</defs>
</svg>
